<mxfile host="app.diagrams.net" modified="2022-06-02T20:51:28.359Z" agent="5.0 (Windows)" etag="ZdeUTbXPY952oOf7MB9k" version="18.1.3" type="github" pages="3">
  <diagram id="C5RBs43oDa-KdzZeNtuy" name="Systeme">
    <mxGraphModel dx="1422" dy="762" grid="1" gridSize="10" guides="1" tooltips="1" connect="1" arrows="1" fold="1" page="1" pageScale="1" pageWidth="1100" pageHeight="850" math="0" shadow="0">
      <root>
        <mxCell id="WIyWlLk6GJQsqaUBKTNV-0" />
        <mxCell id="WIyWlLk6GJQsqaUBKTNV-1" parent="WIyWlLk6GJQsqaUBKTNV-0" />
        <mxCell id="aj268Rex47B5RqPuDWty-0" value="Systeme" style="swimlane;childLayout=stackLayout;resizeParent=1;resizeParentMax=0;horizontal=1;startSize=20;horizontalStack=0;labelBackgroundColor=none;labelBorderColor=none;fontFamily=Verdana;" parent="WIyWlLk6GJQsqaUBKTNV-1" vertex="1">
          <mxGeometry x="40" y="40" width="480" height="380" as="geometry" />
        </mxCell>
        <mxCell id="aj268Rex47B5RqPuDWty-1" value="DBA" style="swimlane;startSize=20;horizontal=0;labelBackgroundColor=none;labelBorderColor=none;fontFamily=Verdana;" parent="aj268Rex47B5RqPuDWty-0" vertex="1">
          <mxGeometry y="20" width="480" height="120" as="geometry" />
        </mxCell>
        <mxCell id="aj268Rex47B5RqPuDWty-2" value="Super_Admin" style="swimlane;startSize=20;horizontal=0;labelBackgroundColor=none;labelBorderColor=none;fontFamily=Verdana;" parent="aj268Rex47B5RqPuDWty-0" vertex="1">
          <mxGeometry y="140" width="480" height="120" as="geometry" />
        </mxCell>
        <mxCell id="aj268Rex47B5RqPuDWty-3" value="BI" style="swimlane;startSize=20;horizontal=0;labelBackgroundColor=none;labelBorderColor=none;fontFamily=Verdana;" parent="aj268Rex47B5RqPuDWty-0" vertex="1">
          <mxGeometry y="260" width="480" height="120" as="geometry" />
        </mxCell>
      </root>
    </mxGraphModel>
  </diagram>
  <diagram id="EzKzq2xu6PiQMc3IEFIm" name="Compagnie">
    <mxGraphModel dx="1422" dy="762" grid="1" gridSize="10" guides="1" tooltips="1" connect="1" arrows="1" fold="1" page="1" pageScale="1" pageWidth="1100" pageHeight="850" background="none" math="0" shadow="0">
      <root>
        <mxCell id="0" />
        <mxCell id="1" parent="0" />
        <mxCell id="BoLUXWgDhI3DAeN6LhnW-23" value="" style="group;fontFamily=Verdana;fontSize=14;strokeColor=none;resizeHeight=1;noLabel=0;autosize=0;" parent="1" vertex="1" connectable="0">
          <mxGeometry x="42" y="40" width="1720" height="2270" as="geometry" />
        </mxCell>
        <mxCell id="BoLUXWgDhI3DAeN6LhnW-24" value="" style="group;fontFamily=Verdana;fontSize=11;spacingLeft=36;align=left;" parent="BoLUXWgDhI3DAeN6LhnW-23" vertex="1" connectable="0">
          <mxGeometry width="1720" height="2270" as="geometry" />
        </mxCell>
        <mxCell id="BoLUXWgDhI3DAeN6LhnW-1" value="" style="swimlane;childLayout=stackLayout;resizeParent=1;resizeParentMax=0;horizontal=1;startSize=0;horizontalStack=0;labelBackgroundColor=none;labelBorderColor=none;fontFamily=Verdana;fontSize=13;spacingLeft=36;align=left;whiteSpace=wrap;swimlaneHead=1;collapsible=0;" parent="BoLUXWgDhI3DAeN6LhnW-24" vertex="1">
          <mxGeometry width="1680" height="2250" as="geometry">
            <mxRectangle width="110" height="20" as="alternateBounds" />
          </mxGeometry>
        </mxCell>
        <mxCell id="BoLUXWgDhI3DAeN6LhnW-2" value="Roles participants interne" style="swimlane;startSize=60;horizontal=0;labelBackgroundColor=none;labelBorderColor=none;fontFamily=Verdana;fontSize=12;align=left;spacingLeft=36;fillColor=#f5f5f5;gradientColor=#b3b3b3;strokeColor=#666666;expand=1;collapsible=0;" parent="BoLUXWgDhI3DAeN6LhnW-1" vertex="1" collapsed="1">
          <mxGeometry width="1680" height="60" as="geometry">
            <mxRectangle y="80" width="1680" height="380" as="alternateBounds" />
          </mxGeometry>
        </mxCell>
        <mxCell id="b5rQXbUvAPs85DydFoUU-30" value="Propriétaire" style="swimlane;startSize=38;horizontal=0;labelBackgroundColor=none;labelBorderColor=none;fontFamily=Verdana;fontSize=12;align=left;spacingLeft=36;fillColor=#f5f5f5;gradientColor=#b3b3b3;strokeColor=default;" vertex="1" parent="BoLUXWgDhI3DAeN6LhnW-1">
          <mxGeometry y="60" width="1680" height="380" as="geometry">
            <mxRectangle y="60" width="1680" height="20" as="alternateBounds" />
          </mxGeometry>
        </mxCell>
        <mxCell id="b5rQXbUvAPs85DydFoUU-31" value="" style="swimlane;childLayout=stackLayout;resizeParent=1;resizeParentMax=0;startSize=32;rounded=0;shadow=0;glass=0;labelBackgroundColor=none;labelBorderColor=none;sketch=0;pointerEvents=1;fontFamily=Verdana;collapsible=0;fontSize=11;" vertex="1" parent="b5rQXbUvAPs85DydFoUU-30">
          <mxGeometry x="60.002772277227734" y="10" width="958.12" height="360" as="geometry" />
        </mxCell>
        <mxCell id="b5rQXbUvAPs85DydFoUU-32" value="" style="swimlane;startSize=0;rounded=0;shadow=0;glass=0;labelBackgroundColor=none;labelBorderColor=none;sketch=0;pointerEvents=1;fontFamily=Verdana;strokeColor=none;fillColor=none;fontSize=11;collapsible=1;" vertex="1" parent="b5rQXbUvAPs85DydFoUU-31">
          <mxGeometry y="32" width="320" height="328" as="geometry">
            <mxRectangle y="32" width="30" height="298" as="alternateBounds" />
          </mxGeometry>
        </mxCell>
        <mxCell id="b5rQXbUvAPs85DydFoUU-33" value="" style="group" vertex="1" connectable="0" parent="b5rQXbUvAPs85DydFoUU-32">
          <mxGeometry x="27.993465346534656" y="32" width="242.25930693069304" height="168" as="geometry" />
        </mxCell>
        <mxCell id="b5rQXbUvAPs85DydFoUU-34" value="Gérer sa compagnie" style="rounded=1;whiteSpace=wrap;html=1;arcSize=40;fontColor=#000000;fillColor=#ffffc0;strokeColor=#ff0000;shadow=0;glass=0;labelBackgroundColor=none;labelBorderColor=none;sketch=0;pointerEvents=1;fontFamily=Verdana;fontSize=11;" vertex="1" parent="b5rQXbUvAPs85DydFoUU-33">
          <mxGeometry width="190.0990099009901" height="40" as="geometry" />
        </mxCell>
        <mxCell id="b5rQXbUvAPs85DydFoUU-35" value="Modifier adresse" style="whiteSpace=wrap;html=1;fontFamily=Verdana;fillColor=#ffffc0;strokeColor=#ff0000;fontColor=#000000;rounded=0;arcSize=40;shadow=0;glass=0;labelBackgroundColor=none;labelBorderColor=none;sketch=0;fontSize=11;" vertex="1" parent="b5rQXbUvAPs85DydFoUU-33">
          <mxGeometry x="52.15811881188118" y="70" width="190.0990099009901" height="40" as="geometry" />
        </mxCell>
        <mxCell id="b5rQXbUvAPs85DydFoUU-36" style="edgeStyle=orthogonalEdgeStyle;rounded=0;orthogonalLoop=1;jettySize=auto;html=1;exitX=0.174;exitY=1;exitDx=0;exitDy=0;entryX=0;entryY=0.5;entryDx=0;entryDy=0;fontFamily=Verdana;fontSize=13;exitPerimeter=0;" edge="1" parent="b5rQXbUvAPs85DydFoUU-33" source="b5rQXbUvAPs85DydFoUU-34" target="b5rQXbUvAPs85DydFoUU-35">
          <mxGeometry relative="1" as="geometry">
            <Array as="points">
              <mxPoint x="33.15653465346534" y="90" />
            </Array>
          </mxGeometry>
        </mxCell>
        <mxCell id="b5rQXbUvAPs85DydFoUU-37" value="Demander désactivation" style="whiteSpace=wrap;html=1;fontFamily=Verdana;fillColor=#ffffc0;strokeColor=#ff0000;fontColor=#000000;rounded=0;arcSize=40;shadow=0;glass=0;labelBackgroundColor=none;labelBorderColor=none;sketch=0;fontSize=11;" vertex="1" parent="b5rQXbUvAPs85DydFoUU-33">
          <mxGeometry x="52.160297029702974" y="130" width="190.0990099009901" height="38" as="geometry" />
        </mxCell>
        <mxCell id="b5rQXbUvAPs85DydFoUU-38" style="edgeStyle=orthogonalEdgeStyle;rounded=0;orthogonalLoop=1;jettySize=auto;html=1;exitX=0.174;exitY=0.988;exitDx=0;exitDy=0;entryX=-0.005;entryY=0.618;entryDx=0;entryDy=0;entryPerimeter=0;jumpStyle=line;exitPerimeter=0;" edge="1" parent="b5rQXbUvAPs85DydFoUU-33" source="b5rQXbUvAPs85DydFoUU-34" target="b5rQXbUvAPs85DydFoUU-37">
          <mxGeometry relative="1" as="geometry">
            <Array as="points">
              <mxPoint x="33.15653465346534" y="154" />
            </Array>
          </mxGeometry>
        </mxCell>
        <mxCell id="b5rQXbUvAPs85DydFoUU-39" value="Rôles" style="swimlane;startSize=20;rounded=0;shadow=0;glass=0;labelBackgroundColor=none;labelBorderColor=none;sketch=0;pointerEvents=1;fontFamily=Verdana;strokeColor=none;fillColor=none;fontSize=11;" vertex="1" parent="b5rQXbUvAPs85DydFoUU-31">
          <mxGeometry x="320" y="32" width="320" height="328" as="geometry">
            <mxRectangle x="320" y="32" width="30" height="298" as="alternateBounds" />
          </mxGeometry>
        </mxCell>
        <mxCell id="b5rQXbUvAPs85DydFoUU-40" value="" style="edgeStyle=orthogonalEdgeStyle;rounded=0;orthogonalLoop=1;jettySize=auto;html=1;fontFamily=Verdana;fontSize=13;exitX=0.184;exitY=0.975;exitDx=0;exitDy=0;exitPerimeter=0;" edge="1" parent="b5rQXbUvAPs85DydFoUU-39" source="b5rQXbUvAPs85DydFoUU-41" target="b5rQXbUvAPs85DydFoUU-42">
          <mxGeometry relative="1" as="geometry">
            <Array as="points">
              <mxPoint x="68" y="120" />
            </Array>
          </mxGeometry>
        </mxCell>
        <mxCell id="b5rQXbUvAPs85DydFoUU-41" value="Gérer rôles" style="rounded=1;whiteSpace=wrap;html=1;arcSize=40;fontColor=#000000;fillColor=#ffffc0;strokeColor=#ff0000;shadow=0;glass=0;labelBackgroundColor=none;labelBorderColor=none;sketch=0;pointerEvents=1;fontFamily=Verdana;fontSize=11;" vertex="1" parent="b5rQXbUvAPs85DydFoUU-39">
          <mxGeometry x="33.00108910891089" y="30" width="190.0990099009901" height="40" as="geometry" />
        </mxCell>
        <mxCell id="b5rQXbUvAPs85DydFoUU-42" value="Assigner rôles interne" style="rounded=0;whiteSpace=wrap;html=1;arcSize=40;fontColor=#000000;fillColor=#ffffc0;strokeColor=#ff0000;shadow=0;glass=0;labelBackgroundColor=none;labelBorderColor=none;sketch=0;pointerEvents=1;fontFamily=Verdana;fontSize=11;" vertex="1" parent="b5rQXbUvAPs85DydFoUU-39">
          <mxGeometry x="88" y="100" width="190.0990099009901" height="40" as="geometry" />
        </mxCell>
        <mxCell id="b5rQXbUvAPs85DydFoUU-43" value="Désassigner rôles interne" style="rounded=0;whiteSpace=wrap;html=1;arcSize=40;fontColor=#000000;fillColor=#ffffc0;strokeColor=#ff0000;shadow=0;glass=0;labelBackgroundColor=none;labelBorderColor=none;sketch=0;pointerEvents=1;fontFamily=Verdana;fontSize=11;" vertex="1" parent="b5rQXbUvAPs85DydFoUU-39">
          <mxGeometry x="88.00059405940596" y="160" width="190.0990099009901" height="40" as="geometry" />
        </mxCell>
        <mxCell id="b5rQXbUvAPs85DydFoUU-44" value="" style="edgeStyle=orthogonalEdgeStyle;rounded=0;orthogonalLoop=1;jettySize=auto;html=1;fontFamily=Verdana;fontSize=13;exitX=0.189;exitY=1.025;exitDx=0;exitDy=0;exitPerimeter=0;" edge="1" parent="b5rQXbUvAPs85DydFoUU-39" source="b5rQXbUvAPs85DydFoUU-41" target="b5rQXbUvAPs85DydFoUU-43">
          <mxGeometry relative="1" as="geometry">
            <Array as="points">
              <mxPoint x="69" y="180" />
            </Array>
          </mxGeometry>
        </mxCell>
        <mxCell id="b5rQXbUvAPs85DydFoUU-45" value="Services" style="swimlane;startSize=20;rounded=0;shadow=0;glass=0;labelBackgroundColor=none;labelBorderColor=none;sketch=0;pointerEvents=1;fontFamily=Verdana;strokeColor=default;fillColor=none;fontSize=11;" vertex="1" parent="b5rQXbUvAPs85DydFoUU-31">
          <mxGeometry x="640" y="32" width="318.12" height="328" as="geometry">
            <mxRectangle x="731.8811881188119" y="32" width="30" height="298" as="alternateBounds" />
          </mxGeometry>
        </mxCell>
        <mxCell id="b5rQXbUvAPs85DydFoUU-46" value="" style="group" vertex="1" connectable="0" parent="b5rQXbUvAPs85DydFoUU-45">
          <mxGeometry x="26.706930693069296" y="30" width="250.10524752475249" height="258" as="geometry" />
        </mxCell>
        <mxCell id="b5rQXbUvAPs85DydFoUU-47" value="Gérer Services" style="rounded=1;whiteSpace=wrap;html=1;arcSize=40;fontColor=#000000;fillColor=#ffffc0;strokeColor=#ff0000;shadow=0;glass=0;labelBackgroundColor=none;labelBorderColor=none;sketch=0;pointerEvents=1;fontFamily=Verdana;fontSize=11;" vertex="1" parent="b5rQXbUvAPs85DydFoUU-46">
          <mxGeometry width="190.0990099009901" height="40" as="geometry" />
        </mxCell>
        <mxCell id="b5rQXbUvAPs85DydFoUU-48" value="Modifier" style="rounded=0;whiteSpace=wrap;html=1;arcSize=40;fontColor=#000000;fillColor=#ffffc0;strokeColor=#ff0000;shadow=0;glass=0;labelBackgroundColor=none;labelBorderColor=none;sketch=0;pointerEvents=1;fontFamily=Verdana;fontSize=11;" vertex="1" parent="b5rQXbUvAPs85DydFoUU-46">
          <mxGeometry x="49.410000000000025" y="130" width="190.0990099009901" height="40" as="geometry" />
        </mxCell>
        <mxCell id="b5rQXbUvAPs85DydFoUU-49" value="Désactiver" style="rounded=0;whiteSpace=wrap;html=1;arcSize=40;fontColor=#000000;fillColor=#ffffc0;strokeColor=#ff0000;shadow=0;glass=0;labelBackgroundColor=none;labelBorderColor=none;sketch=0;pointerEvents=1;fontFamily=Verdana;fontSize=11;" vertex="1" parent="b5rQXbUvAPs85DydFoUU-46">
          <mxGeometry x="49.41376237623763" y="190" width="190.0990099009901" height="40" as="geometry" />
        </mxCell>
        <mxCell id="b5rQXbUvAPs85DydFoUU-50" value="Créer" style="rounded=0;whiteSpace=wrap;html=1;arcSize=40;fontColor=#000000;fillColor=#ffffc0;strokeColor=#ff0000;shadow=0;glass=0;labelBackgroundColor=none;labelBorderColor=none;sketch=0;pointerEvents=1;fontFamily=Verdana;fontSize=11;" vertex="1" parent="b5rQXbUvAPs85DydFoUU-46">
          <mxGeometry x="49.4162376237624" y="70" width="190.0990099009901" height="40" as="geometry" />
        </mxCell>
        <mxCell id="b5rQXbUvAPs85DydFoUU-51" style="edgeStyle=orthogonalEdgeStyle;rounded=0;jumpStyle=line;orthogonalLoop=1;jettySize=auto;html=1;startArrow=none;startFill=0;entryX=0;entryY=0.5;entryDx=0;entryDy=0;" edge="1" parent="b5rQXbUvAPs85DydFoUU-46" target="b5rQXbUvAPs85DydFoUU-50">
          <mxGeometry relative="1" as="geometry">
            <mxPoint x="29.99910891089104" y="110" as="targetPoint" />
            <mxPoint x="29.99910891089104" y="40" as="sourcePoint" />
            <Array as="points">
              <mxPoint x="30" y="40" />
              <mxPoint x="30" y="100" />
            </Array>
          </mxGeometry>
        </mxCell>
        <mxCell id="b5rQXbUvAPs85DydFoUU-52" style="edgeStyle=orthogonalEdgeStyle;rounded=0;jumpStyle=line;orthogonalLoop=1;jettySize=auto;html=1;startArrow=none;startFill=0;entryX=0;entryY=0.5;entryDx=0;entryDy=0;exitX=0.153;exitY=1.008;exitDx=0;exitDy=0;exitPerimeter=0;" edge="1" parent="b5rQXbUvAPs85DydFoUU-46" source="b5rQXbUvAPs85DydFoUU-47" target="b5rQXbUvAPs85DydFoUU-48">
          <mxGeometry relative="1" as="geometry">
            <mxPoint x="70.0062376237625" y="111" as="targetPoint" />
            <mxPoint x="39.99910891089104" y="50" as="sourcePoint" />
            <Array as="points">
              <mxPoint x="30" y="150" />
            </Array>
          </mxGeometry>
        </mxCell>
        <mxCell id="b5rQXbUvAPs85DydFoUU-53" style="edgeStyle=orthogonalEdgeStyle;rounded=0;jumpStyle=line;orthogonalLoop=1;jettySize=auto;html=1;startArrow=none;startFill=0;entryX=0;entryY=0.5;entryDx=0;entryDy=0;exitX=0.153;exitY=1.008;exitDx=0;exitDy=0;exitPerimeter=0;" edge="1" parent="b5rQXbUvAPs85DydFoUU-46" target="b5rQXbUvAPs85DydFoUU-49">
          <mxGeometry relative="1" as="geometry">
            <mxPoint x="60.01000000000005" y="187.85000000000002" as="targetPoint" />
            <mxPoint x="29.095148514851473" y="58.17000000000007" as="sourcePoint" />
            <Array as="points">
              <mxPoint x="30" y="210" />
            </Array>
          </mxGeometry>
        </mxCell>
        <mxCell id="b5rQXbUvAPs85DydFoUU-54" value="Lire" style="rounded=0;whiteSpace=wrap;html=1;arcSize=40;fontColor=#000000;fillColor=#ffffc0;strokeColor=#ff0000;shadow=0;glass=0;labelBackgroundColor=none;labelBorderColor=none;sketch=0;pointerEvents=1;fontFamily=Verdana;fontSize=11;" vertex="1" parent="b5rQXbUvAPs85DydFoUU-45">
          <mxGeometry x="76.12069306930698" y="280" width="190.0990099009901" height="40" as="geometry" />
        </mxCell>
        <mxCell id="b5rQXbUvAPs85DydFoUU-55" value="" style="edgeStyle=orthogonalEdgeStyle;rounded=0;orthogonalLoop=1;jettySize=auto;html=1;exitX=0.155;exitY=1;exitDx=0;exitDy=0;exitPerimeter=0;entryX=0;entryY=0.5;entryDx=0;entryDy=0;" edge="1" parent="b5rQXbUvAPs85DydFoUU-45" source="b5rQXbUvAPs85DydFoUU-47" target="b5rQXbUvAPs85DydFoUU-54">
          <mxGeometry relative="1" as="geometry">
            <mxPoint x="67.99722772277232" y="310" as="targetPoint" />
            <Array as="points">
              <mxPoint x="56" y="300" />
            </Array>
          </mxGeometry>
        </mxCell>
        <mxCell id="BoLUXWgDhI3DAeN6LhnW-3" value="Gestionnaire Comptes à recevoir" style="swimlane;startSize=38;horizontal=0;labelBackgroundColor=none;labelBorderColor=none;fontFamily=Verdana;fontSize=11;spacingLeft=36;align=left;fillColor=#f5f5f5;gradientColor=#b3b3b3;strokeColor=#666666;collapsible=1;" parent="BoLUXWgDhI3DAeN6LhnW-1" vertex="1">
          <mxGeometry y="440" width="1680" height="350" as="geometry">
            <mxRectangle y="80" width="1680" height="20" as="alternateBounds" />
          </mxGeometry>
        </mxCell>
        <mxCell id="URq3LJ6IlfaEt6JYX526-3" value="" style="swimlane;childLayout=stackLayout;resizeParent=1;resizeParentMax=0;startSize=0;rounded=0;shadow=0;glass=0;labelBackgroundColor=none;labelBorderColor=none;sketch=0;pointerEvents=1;fontFamily=Verdana;collapsible=0;fontSize=11;strokeColor=none;" parent="BoLUXWgDhI3DAeN6LhnW-3" vertex="1">
          <mxGeometry x="60" y="10" width="1272.48" height="330" as="geometry" />
        </mxCell>
        <mxCell id="URq3LJ6IlfaEt6JYX526-17" value="" style="swimlane;startSize=20;rounded=0;shadow=0;glass=0;labelBackgroundColor=none;labelBorderColor=none;sketch=0;pointerEvents=1;fontFamily=Verdana;strokeColor=none;fillColor=none;fontSize=11;perimeterSpacing=1;" parent="URq3LJ6IlfaEt6JYX526-3" vertex="1">
          <mxGeometry width="318.12" height="330" as="geometry">
            <mxRectangle width="30" height="360" as="alternateBounds" />
          </mxGeometry>
        </mxCell>
        <mxCell id="URq3LJ6IlfaEt6JYX526-18" value="" style="group" parent="URq3LJ6IlfaEt6JYX526-17" vertex="1" connectable="0">
          <mxGeometry x="26.706930693069296" y="30" width="250.10524752475249" height="258" as="geometry" />
        </mxCell>
        <mxCell id="URq3LJ6IlfaEt6JYX526-19" value="Gérer Clients" style="rounded=1;whiteSpace=wrap;html=1;arcSize=40;fontColor=#000000;fillColor=#ffffc0;strokeColor=#ff0000;shadow=0;glass=0;labelBackgroundColor=none;labelBorderColor=none;sketch=0;pointerEvents=1;fontFamily=Verdana;fontSize=11;" parent="URq3LJ6IlfaEt6JYX526-18" vertex="1">
          <mxGeometry width="190.0990099009901" height="40" as="geometry" />
        </mxCell>
        <mxCell id="URq3LJ6IlfaEt6JYX526-20" value="Modifier" style="rounded=0;whiteSpace=wrap;html=1;arcSize=40;fontColor=#000000;fillColor=#ffffc0;strokeColor=#ff0000;shadow=0;glass=0;labelBackgroundColor=none;labelBorderColor=none;sketch=0;pointerEvents=1;fontFamily=Verdana;fontSize=11;" parent="URq3LJ6IlfaEt6JYX526-18" vertex="1">
          <mxGeometry x="49.410000000000025" y="130" width="190.0990099009901" height="40" as="geometry" />
        </mxCell>
        <mxCell id="URq3LJ6IlfaEt6JYX526-21" value="Désactiver" style="rounded=0;whiteSpace=wrap;html=1;arcSize=40;fontColor=#000000;fillColor=#ffffc0;strokeColor=#ff0000;shadow=0;glass=0;labelBackgroundColor=none;labelBorderColor=none;sketch=0;pointerEvents=1;fontFamily=Verdana;fontSize=11;" parent="URq3LJ6IlfaEt6JYX526-18" vertex="1">
          <mxGeometry x="49.41376237623763" y="190" width="190.0990099009901" height="40" as="geometry" />
        </mxCell>
        <mxCell id="URq3LJ6IlfaEt6JYX526-22" value="Créer" style="rounded=0;whiteSpace=wrap;html=1;arcSize=40;fontColor=#000000;fillColor=#ffffc0;strokeColor=#ff0000;shadow=0;glass=0;labelBackgroundColor=none;labelBorderColor=none;sketch=0;pointerEvents=1;fontFamily=Verdana;fontSize=11;" parent="URq3LJ6IlfaEt6JYX526-18" vertex="1">
          <mxGeometry x="49.4162376237624" y="70" width="190.0990099009901" height="40" as="geometry" />
        </mxCell>
        <mxCell id="URq3LJ6IlfaEt6JYX526-23" style="edgeStyle=orthogonalEdgeStyle;rounded=0;jumpStyle=line;orthogonalLoop=1;jettySize=auto;html=1;startArrow=none;startFill=0;entryX=0;entryY=0.5;entryDx=0;entryDy=0;" parent="URq3LJ6IlfaEt6JYX526-18" target="URq3LJ6IlfaEt6JYX526-22" edge="1">
          <mxGeometry relative="1" as="geometry">
            <mxPoint x="29.99910891089104" y="110" as="targetPoint" />
            <mxPoint x="29.99910891089104" y="40" as="sourcePoint" />
            <Array as="points">
              <mxPoint x="30" y="40" />
              <mxPoint x="30" y="100" />
            </Array>
          </mxGeometry>
        </mxCell>
        <mxCell id="URq3LJ6IlfaEt6JYX526-24" style="edgeStyle=orthogonalEdgeStyle;rounded=0;jumpStyle=line;orthogonalLoop=1;jettySize=auto;html=1;startArrow=none;startFill=0;entryX=0;entryY=0.5;entryDx=0;entryDy=0;exitX=0.153;exitY=1.008;exitDx=0;exitDy=0;exitPerimeter=0;" parent="URq3LJ6IlfaEt6JYX526-18" source="URq3LJ6IlfaEt6JYX526-19" target="URq3LJ6IlfaEt6JYX526-20" edge="1">
          <mxGeometry relative="1" as="geometry">
            <mxPoint x="70.0062376237625" y="111" as="targetPoint" />
            <mxPoint x="39.99910891089104" y="50" as="sourcePoint" />
            <Array as="points">
              <mxPoint x="30" y="150" />
            </Array>
          </mxGeometry>
        </mxCell>
        <mxCell id="URq3LJ6IlfaEt6JYX526-25" style="edgeStyle=orthogonalEdgeStyle;rounded=0;jumpStyle=line;orthogonalLoop=1;jettySize=auto;html=1;startArrow=none;startFill=0;entryX=0;entryY=0.5;entryDx=0;entryDy=0;exitX=0.153;exitY=1.008;exitDx=0;exitDy=0;exitPerimeter=0;" parent="URq3LJ6IlfaEt6JYX526-18" target="URq3LJ6IlfaEt6JYX526-21" edge="1">
          <mxGeometry relative="1" as="geometry">
            <mxPoint x="60.01000000000005" y="187.85000000000002" as="targetPoint" />
            <mxPoint x="29.095148514851473" y="58.17000000000007" as="sourcePoint" />
            <Array as="points">
              <mxPoint x="30" y="210" />
            </Array>
          </mxGeometry>
        </mxCell>
        <mxCell id="URq3LJ6IlfaEt6JYX526-26" value="Lire" style="rounded=0;whiteSpace=wrap;html=1;arcSize=40;fontColor=#000000;fillColor=#ffffc0;strokeColor=#ff0000;shadow=0;glass=0;labelBackgroundColor=none;labelBorderColor=none;sketch=0;pointerEvents=1;fontFamily=Verdana;fontSize=11;" parent="URq3LJ6IlfaEt6JYX526-17" vertex="1">
          <mxGeometry x="76.12069306930698" y="280" width="190.0990099009901" height="40" as="geometry" />
        </mxCell>
        <mxCell id="URq3LJ6IlfaEt6JYX526-27" value="" style="edgeStyle=orthogonalEdgeStyle;rounded=0;orthogonalLoop=1;jettySize=auto;html=1;exitX=0.155;exitY=1;exitDx=0;exitDy=0;exitPerimeter=0;entryX=0;entryY=0.5;entryDx=0;entryDy=0;" parent="URq3LJ6IlfaEt6JYX526-17" source="URq3LJ6IlfaEt6JYX526-19" target="URq3LJ6IlfaEt6JYX526-26" edge="1">
          <mxGeometry relative="1" as="geometry">
            <mxPoint x="67.99722772277232" y="310" as="targetPoint" />
            <Array as="points">
              <mxPoint x="56" y="300" />
            </Array>
          </mxGeometry>
        </mxCell>
        <mxCell id="URq3LJ6IlfaEt6JYX526-28" value="" style="swimlane;startSize=20;rounded=0;shadow=0;glass=0;labelBackgroundColor=none;labelBorderColor=none;sketch=0;pointerEvents=1;fontFamily=Verdana;strokeColor=none;fillColor=none;fontSize=11;" parent="URq3LJ6IlfaEt6JYX526-3" vertex="1">
          <mxGeometry x="318.12" width="318.12" height="330" as="geometry">
            <mxRectangle x="318.12" width="30" height="330" as="alternateBounds" />
          </mxGeometry>
        </mxCell>
        <mxCell id="URq3LJ6IlfaEt6JYX526-29" value="" style="group" parent="URq3LJ6IlfaEt6JYX526-28" vertex="1" connectable="0">
          <mxGeometry x="26.706930693069296" y="30" width="250.10524752475249" height="258" as="geometry" />
        </mxCell>
        <mxCell id="URq3LJ6IlfaEt6JYX526-30" value="Gérer Facturation" style="rounded=1;whiteSpace=wrap;html=1;arcSize=40;fontColor=#000000;fillColor=#ffffc0;strokeColor=#ff0000;shadow=0;glass=0;labelBackgroundColor=none;labelBorderColor=none;sketch=0;pointerEvents=1;fontFamily=Verdana;fontSize=11;" parent="URq3LJ6IlfaEt6JYX526-29" vertex="1">
          <mxGeometry width="190.0990099009901" height="40" as="geometry" />
        </mxCell>
        <mxCell id="URq3LJ6IlfaEt6JYX526-31" value="Invalider" style="rounded=0;whiteSpace=wrap;html=1;arcSize=40;fontColor=#000000;fillColor=#ffffc0;strokeColor=#ff0000;shadow=0;glass=0;labelBackgroundColor=none;labelBorderColor=none;sketch=0;pointerEvents=1;fontFamily=Verdana;fontSize=11;" parent="URq3LJ6IlfaEt6JYX526-29" vertex="1">
          <mxGeometry x="49.410000000000025" y="130" width="190.0990099009901" height="40" as="geometry" />
        </mxCell>
        <mxCell id="URq3LJ6IlfaEt6JYX526-33" value="Créer" style="rounded=0;whiteSpace=wrap;html=1;arcSize=40;fontColor=#000000;fillColor=#ffffc0;strokeColor=#ff0000;shadow=0;glass=0;labelBackgroundColor=none;labelBorderColor=none;sketch=0;pointerEvents=1;fontFamily=Verdana;fontSize=11;" parent="URq3LJ6IlfaEt6JYX526-29" vertex="1">
          <mxGeometry x="49.4162376237624" y="70" width="190.0990099009901" height="40" as="geometry" />
        </mxCell>
        <mxCell id="URq3LJ6IlfaEt6JYX526-34" style="edgeStyle=orthogonalEdgeStyle;rounded=0;jumpStyle=line;orthogonalLoop=1;jettySize=auto;html=1;startArrow=none;startFill=0;entryX=0;entryY=0.5;entryDx=0;entryDy=0;" parent="URq3LJ6IlfaEt6JYX526-29" target="URq3LJ6IlfaEt6JYX526-33" edge="1">
          <mxGeometry relative="1" as="geometry">
            <mxPoint x="29.99910891089104" y="110" as="targetPoint" />
            <mxPoint x="29.99910891089104" y="40" as="sourcePoint" />
            <Array as="points">
              <mxPoint x="30" y="40" />
              <mxPoint x="30" y="100" />
            </Array>
          </mxGeometry>
        </mxCell>
        <mxCell id="URq3LJ6IlfaEt6JYX526-35" style="edgeStyle=orthogonalEdgeStyle;rounded=0;jumpStyle=line;orthogonalLoop=1;jettySize=auto;html=1;startArrow=none;startFill=0;entryX=0;entryY=0.5;entryDx=0;entryDy=0;exitX=0.153;exitY=1.008;exitDx=0;exitDy=0;exitPerimeter=0;" parent="URq3LJ6IlfaEt6JYX526-29" source="URq3LJ6IlfaEt6JYX526-30" target="URq3LJ6IlfaEt6JYX526-31" edge="1">
          <mxGeometry relative="1" as="geometry">
            <mxPoint x="70.0062376237625" y="111" as="targetPoint" />
            <mxPoint x="39.99910891089104" y="50" as="sourcePoint" />
            <Array as="points">
              <mxPoint x="30" y="150" />
            </Array>
          </mxGeometry>
        </mxCell>
        <mxCell id="URq3LJ6IlfaEt6JYX526-39" value="" style="swimlane;startSize=20;rounded=0;shadow=0;glass=0;labelBackgroundColor=none;labelBorderColor=none;sketch=0;pointerEvents=1;fontFamily=Verdana;strokeColor=none;fillColor=none;fontSize=11;" parent="URq3LJ6IlfaEt6JYX526-3" vertex="1">
          <mxGeometry x="636.24" width="318.12" height="330" as="geometry">
            <mxRectangle x="731.8811881188119" y="32" width="30" height="298" as="alternateBounds" />
          </mxGeometry>
        </mxCell>
        <mxCell id="URq3LJ6IlfaEt6JYX526-40" value="" style="group" parent="URq3LJ6IlfaEt6JYX526-39" vertex="1" connectable="0">
          <mxGeometry x="26.706930693069296" y="30" width="250.10524752475249" height="258" as="geometry" />
        </mxCell>
        <mxCell id="URq3LJ6IlfaEt6JYX526-41" value="Gérer Etats de comptes" style="rounded=1;whiteSpace=wrap;html=1;arcSize=40;fontColor=#000000;fillColor=#ffffc0;strokeColor=#ff0000;shadow=0;glass=0;labelBackgroundColor=none;labelBorderColor=none;sketch=0;pointerEvents=1;fontFamily=Verdana;fontSize=11;" parent="URq3LJ6IlfaEt6JYX526-40" vertex="1">
          <mxGeometry width="190.0990099009901" height="40" as="geometry" />
        </mxCell>
        <mxCell id="URq3LJ6IlfaEt6JYX526-43" value="Envoyer" style="rounded=0;whiteSpace=wrap;html=1;arcSize=40;fontColor=#000000;fillColor=#ffffc0;strokeColor=#ff0000;shadow=0;glass=0;labelBackgroundColor=none;labelBorderColor=none;sketch=0;pointerEvents=1;fontFamily=Verdana;fontSize=11;" parent="URq3LJ6IlfaEt6JYX526-40" vertex="1">
          <mxGeometry x="49.4162376237624" y="70" width="190.0990099009901" height="40" as="geometry" />
        </mxCell>
        <mxCell id="URq3LJ6IlfaEt6JYX526-44" style="edgeStyle=orthogonalEdgeStyle;rounded=0;jumpStyle=line;orthogonalLoop=1;jettySize=auto;html=1;startArrow=none;startFill=0;entryX=0;entryY=0.5;entryDx=0;entryDy=0;" parent="URq3LJ6IlfaEt6JYX526-40" target="URq3LJ6IlfaEt6JYX526-43" edge="1">
          <mxGeometry relative="1" as="geometry">
            <mxPoint x="29.99910891089104" y="110" as="targetPoint" />
            <mxPoint x="29.99910891089104" y="40" as="sourcePoint" />
            <Array as="points">
              <mxPoint x="30" y="40" />
              <mxPoint x="30" y="100" />
            </Array>
          </mxGeometry>
        </mxCell>
        <mxCell id="URq3LJ6IlfaEt6JYX526-46" value="" style="swimlane;startSize=20;rounded=0;shadow=0;glass=0;labelBackgroundColor=none;labelBorderColor=none;sketch=0;pointerEvents=1;fontFamily=Verdana;strokeColor=none;fillColor=none;fontSize=11;" parent="URq3LJ6IlfaEt6JYX526-3" vertex="1">
          <mxGeometry x="954.36" width="318.12" height="330" as="geometry">
            <mxRectangle x="731.8811881188119" y="32" width="30" height="298" as="alternateBounds" />
          </mxGeometry>
        </mxCell>
        <mxCell id="URq3LJ6IlfaEt6JYX526-47" value="" style="group" parent="URq3LJ6IlfaEt6JYX526-46" vertex="1" connectable="0">
          <mxGeometry x="26.706930693069296" y="30" width="250.10524752475249" height="258" as="geometry" />
        </mxCell>
        <mxCell id="URq3LJ6IlfaEt6JYX526-48" value="Gérer Encaissement" style="rounded=1;whiteSpace=wrap;html=1;arcSize=40;fontColor=#000000;fillColor=#ffffc0;strokeColor=#ff0000;shadow=0;glass=0;labelBackgroundColor=none;labelBorderColor=none;sketch=0;pointerEvents=1;fontFamily=Verdana;fontSize=11;" parent="URq3LJ6IlfaEt6JYX526-47" vertex="1">
          <mxGeometry width="190.0990099009901" height="40" as="geometry" />
        </mxCell>
        <mxCell id="URq3LJ6IlfaEt6JYX526-49" value="Modifier statut facture" style="rounded=0;whiteSpace=wrap;html=1;arcSize=40;fontColor=#000000;fillColor=#ffffc0;strokeColor=#ff0000;shadow=0;glass=0;labelBackgroundColor=none;labelBorderColor=none;sketch=0;pointerEvents=1;fontFamily=Verdana;fontSize=11;" parent="URq3LJ6IlfaEt6JYX526-47" vertex="1">
          <mxGeometry x="49.4162376237624" y="70" width="190.0990099009901" height="40" as="geometry" />
        </mxCell>
        <mxCell id="URq3LJ6IlfaEt6JYX526-50" style="edgeStyle=orthogonalEdgeStyle;rounded=0;jumpStyle=line;orthogonalLoop=1;jettySize=auto;html=1;startArrow=none;startFill=0;entryX=0;entryY=0.5;entryDx=0;entryDy=0;" parent="URq3LJ6IlfaEt6JYX526-47" target="URq3LJ6IlfaEt6JYX526-49" edge="1">
          <mxGeometry relative="1" as="geometry">
            <mxPoint x="29.99910891089104" y="110" as="targetPoint" />
            <mxPoint x="29.99910891089104" y="40" as="sourcePoint" />
            <Array as="points">
              <mxPoint x="30" y="40" />
              <mxPoint x="30" y="100" />
            </Array>
          </mxGeometry>
        </mxCell>
        <mxCell id="BoLUXWgDhI3DAeN6LhnW-4" value="Gestionnaire Comptes à payer" style="swimlane;startSize=38;horizontal=0;labelBackgroundColor=none;labelBorderColor=none;fontFamily=Verdana;fontSize=11;spacingLeft=36;align=left;fillColor=#f5f5f5;gradientColor=#b3b3b3;strokeColor=#666666;" parent="BoLUXWgDhI3DAeN6LhnW-1" vertex="1">
          <mxGeometry y="790" width="1680" height="370" as="geometry">
            <mxRectangle y="100" width="1680" height="20" as="alternateBounds" />
          </mxGeometry>
        </mxCell>
        <mxCell id="2tWmwAdW8aNyq1ykrB5q-3" value="" style="swimlane;childLayout=stackLayout;resizeParent=1;resizeParentMax=0;startSize=0;rounded=0;shadow=0;glass=0;labelBackgroundColor=none;labelBorderColor=none;sketch=0;pointerEvents=1;fontFamily=Verdana;collapsible=0;fontSize=11;strokeColor=none;" parent="BoLUXWgDhI3DAeN6LhnW-4" vertex="1">
          <mxGeometry x="60" y="20" width="636.24" height="330" as="geometry" />
        </mxCell>
        <mxCell id="2tWmwAdW8aNyq1ykrB5q-4" value="" style="swimlane;startSize=20;rounded=0;shadow=0;glass=0;labelBackgroundColor=none;labelBorderColor=none;sketch=0;pointerEvents=1;fontFamily=Verdana;strokeColor=none;fillColor=none;fontSize=11;perimeterSpacing=1;" parent="2tWmwAdW8aNyq1ykrB5q-3" vertex="1">
          <mxGeometry width="318.12" height="330" as="geometry">
            <mxRectangle width="30" height="360" as="alternateBounds" />
          </mxGeometry>
        </mxCell>
        <mxCell id="2tWmwAdW8aNyq1ykrB5q-5" value="" style="group" parent="2tWmwAdW8aNyq1ykrB5q-4" vertex="1" connectable="0">
          <mxGeometry x="26.706930693069296" y="30" width="250.10524752475249" height="258" as="geometry" />
        </mxCell>
        <mxCell id="2tWmwAdW8aNyq1ykrB5q-6" value="Gérer Consultant" style="rounded=1;whiteSpace=wrap;html=1;arcSize=40;fontColor=#000000;fillColor=#ffffc0;strokeColor=#ff0000;shadow=0;glass=0;labelBackgroundColor=none;labelBorderColor=none;sketch=0;pointerEvents=1;fontFamily=Verdana;fontSize=11;" parent="2tWmwAdW8aNyq1ykrB5q-5" vertex="1">
          <mxGeometry width="190.0990099009901" height="40" as="geometry" />
        </mxCell>
        <mxCell id="2tWmwAdW8aNyq1ykrB5q-7" value="Modifier" style="rounded=0;whiteSpace=wrap;html=1;arcSize=40;fontColor=#000000;fillColor=#ffffc0;strokeColor=#ff0000;shadow=0;glass=0;labelBackgroundColor=none;labelBorderColor=none;sketch=0;pointerEvents=1;fontFamily=Verdana;fontSize=11;" parent="2tWmwAdW8aNyq1ykrB5q-5" vertex="1">
          <mxGeometry x="49.410000000000025" y="130" width="190.0990099009901" height="40" as="geometry" />
        </mxCell>
        <mxCell id="2tWmwAdW8aNyq1ykrB5q-8" value="Désactiver" style="rounded=0;whiteSpace=wrap;html=1;arcSize=40;fontColor=#000000;fillColor=#ffffc0;strokeColor=#ff0000;shadow=0;glass=0;labelBackgroundColor=none;labelBorderColor=none;sketch=0;pointerEvents=1;fontFamily=Verdana;fontSize=11;" parent="2tWmwAdW8aNyq1ykrB5q-5" vertex="1">
          <mxGeometry x="49.41376237623763" y="190" width="190.0990099009901" height="40" as="geometry" />
        </mxCell>
        <mxCell id="2tWmwAdW8aNyq1ykrB5q-9" value="Créer" style="rounded=0;whiteSpace=wrap;html=1;arcSize=40;fontColor=#000000;fillColor=#ffffc0;strokeColor=#ff0000;shadow=0;glass=0;labelBackgroundColor=none;labelBorderColor=none;sketch=0;pointerEvents=1;fontFamily=Verdana;fontSize=11;" parent="2tWmwAdW8aNyq1ykrB5q-5" vertex="1">
          <mxGeometry x="49.4162376237624" y="70" width="190.0990099009901" height="40" as="geometry" />
        </mxCell>
        <mxCell id="2tWmwAdW8aNyq1ykrB5q-10" style="edgeStyle=orthogonalEdgeStyle;rounded=0;jumpStyle=line;orthogonalLoop=1;jettySize=auto;html=1;startArrow=none;startFill=0;entryX=0;entryY=0.5;entryDx=0;entryDy=0;" parent="2tWmwAdW8aNyq1ykrB5q-5" target="2tWmwAdW8aNyq1ykrB5q-9" edge="1">
          <mxGeometry relative="1" as="geometry">
            <mxPoint x="29.99910891089104" y="110" as="targetPoint" />
            <mxPoint x="29.99910891089104" y="40" as="sourcePoint" />
            <Array as="points">
              <mxPoint x="30" y="40" />
              <mxPoint x="30" y="100" />
            </Array>
          </mxGeometry>
        </mxCell>
        <mxCell id="2tWmwAdW8aNyq1ykrB5q-11" style="edgeStyle=orthogonalEdgeStyle;rounded=0;jumpStyle=line;orthogonalLoop=1;jettySize=auto;html=1;startArrow=none;startFill=0;entryX=0;entryY=0.5;entryDx=0;entryDy=0;exitX=0.153;exitY=1.008;exitDx=0;exitDy=0;exitPerimeter=0;" parent="2tWmwAdW8aNyq1ykrB5q-5" source="2tWmwAdW8aNyq1ykrB5q-6" target="2tWmwAdW8aNyq1ykrB5q-7" edge="1">
          <mxGeometry relative="1" as="geometry">
            <mxPoint x="70.0062376237625" y="111" as="targetPoint" />
            <mxPoint x="39.99910891089104" y="50" as="sourcePoint" />
            <Array as="points">
              <mxPoint x="30" y="150" />
            </Array>
          </mxGeometry>
        </mxCell>
        <mxCell id="2tWmwAdW8aNyq1ykrB5q-12" style="edgeStyle=orthogonalEdgeStyle;rounded=0;jumpStyle=line;orthogonalLoop=1;jettySize=auto;html=1;startArrow=none;startFill=0;entryX=0;entryY=0.5;entryDx=0;entryDy=0;exitX=0.153;exitY=1.008;exitDx=0;exitDy=0;exitPerimeter=0;" parent="2tWmwAdW8aNyq1ykrB5q-5" target="2tWmwAdW8aNyq1ykrB5q-8" edge="1">
          <mxGeometry relative="1" as="geometry">
            <mxPoint x="60.01000000000005" y="187.85000000000002" as="targetPoint" />
            <mxPoint x="29.095148514851473" y="58.17000000000007" as="sourcePoint" />
            <Array as="points">
              <mxPoint x="30" y="210" />
            </Array>
          </mxGeometry>
        </mxCell>
        <mxCell id="2tWmwAdW8aNyq1ykrB5q-13" value="Lire" style="rounded=0;whiteSpace=wrap;html=1;arcSize=40;fontColor=#000000;fillColor=#ffffc0;strokeColor=#ff0000;shadow=0;glass=0;labelBackgroundColor=none;labelBorderColor=none;sketch=0;pointerEvents=1;fontFamily=Verdana;fontSize=11;" parent="2tWmwAdW8aNyq1ykrB5q-4" vertex="1">
          <mxGeometry x="76.12069306930698" y="280" width="190.0990099009901" height="40" as="geometry" />
        </mxCell>
        <mxCell id="2tWmwAdW8aNyq1ykrB5q-14" value="" style="edgeStyle=orthogonalEdgeStyle;rounded=0;orthogonalLoop=1;jettySize=auto;html=1;exitX=0.155;exitY=1;exitDx=0;exitDy=0;exitPerimeter=0;entryX=0;entryY=0.5;entryDx=0;entryDy=0;" parent="2tWmwAdW8aNyq1ykrB5q-4" source="2tWmwAdW8aNyq1ykrB5q-6" target="2tWmwAdW8aNyq1ykrB5q-13" edge="1">
          <mxGeometry relative="1" as="geometry">
            <mxPoint x="67.99722772277232" y="310" as="targetPoint" />
            <Array as="points">
              <mxPoint x="56" y="300" />
            </Array>
          </mxGeometry>
        </mxCell>
        <mxCell id="b5rQXbUvAPs85DydFoUU-21" value="" style="swimlane;startSize=20;rounded=0;shadow=0;glass=0;labelBackgroundColor=none;labelBorderColor=none;sketch=0;pointerEvents=1;fontFamily=Verdana;strokeColor=none;fillColor=none;fontSize=11;" vertex="1" parent="2tWmwAdW8aNyq1ykrB5q-3">
          <mxGeometry x="318.12" width="318.12" height="330" as="geometry">
            <mxRectangle x="731.8811881188119" y="32" width="30" height="298" as="alternateBounds" />
          </mxGeometry>
        </mxCell>
        <mxCell id="b5rQXbUvAPs85DydFoUU-22" value="" style="group" vertex="1" connectable="0" parent="b5rQXbUvAPs85DydFoUU-21">
          <mxGeometry x="26.706930693069296" y="30" width="263.27524752475256" height="258" as="geometry" />
        </mxCell>
        <mxCell id="b5rQXbUvAPs85DydFoUU-23" style="edgeStyle=orthogonalEdgeStyle;rounded=0;orthogonalLoop=1;jettySize=auto;html=1;exitX=0.25;exitY=1;exitDx=0;exitDy=0;entryX=0;entryY=0.5;entryDx=0;entryDy=0;" edge="1" parent="b5rQXbUvAPs85DydFoUU-22" source="b5rQXbUvAPs85DydFoUU-24" target="b5rQXbUvAPs85DydFoUU-29">
          <mxGeometry relative="1" as="geometry" />
        </mxCell>
        <mxCell id="b5rQXbUvAPs85DydFoUU-24" value="Gérer Paiement" style="rounded=1;whiteSpace=wrap;html=1;arcSize=40;fontColor=#000000;fillColor=#ffffc0;strokeColor=#ff0000;shadow=0;glass=0;labelBackgroundColor=none;labelBorderColor=none;sketch=0;pointerEvents=1;fontFamily=Verdana;fontSize=11;" vertex="1" parent="b5rQXbUvAPs85DydFoUU-22">
          <mxGeometry width="190.0990099009901" height="40" as="geometry" />
        </mxCell>
        <mxCell id="b5rQXbUvAPs85DydFoUU-25" value="Invalider" style="rounded=0;whiteSpace=wrap;html=1;arcSize=40;fontColor=#000000;fillColor=#ffffc0;strokeColor=#ff0000;shadow=0;glass=0;labelBackgroundColor=none;labelBorderColor=none;sketch=0;pointerEvents=1;fontFamily=Verdana;fontSize=11;" vertex="1" parent="b5rQXbUvAPs85DydFoUU-22">
          <mxGeometry x="73.17000000000003" y="130" width="190.0990099009901" height="40" as="geometry" />
        </mxCell>
        <mxCell id="b5rQXbUvAPs85DydFoUU-26" value="Créer" style="rounded=0;whiteSpace=wrap;html=1;arcSize=40;fontColor=#000000;fillColor=#ffffc0;strokeColor=#ff0000;shadow=0;glass=0;labelBackgroundColor=none;labelBorderColor=none;sketch=0;pointerEvents=1;fontFamily=Verdana;fontSize=11;" vertex="1" parent="b5rQXbUvAPs85DydFoUU-22">
          <mxGeometry x="73.1762376237624" y="70" width="190.0990099009901" height="40" as="geometry" />
        </mxCell>
        <mxCell id="b5rQXbUvAPs85DydFoUU-27" style="edgeStyle=orthogonalEdgeStyle;rounded=0;jumpStyle=line;orthogonalLoop=1;jettySize=auto;html=1;startArrow=none;startFill=0;entryX=0;entryY=0.5;entryDx=0;entryDy=0;exitX=0.25;exitY=1;exitDx=0;exitDy=0;" edge="1" parent="b5rQXbUvAPs85DydFoUU-22" source="b5rQXbUvAPs85DydFoUU-24" target="b5rQXbUvAPs85DydFoUU-26">
          <mxGeometry relative="1" as="geometry">
            <mxPoint x="29.99910891089104" y="110" as="targetPoint" />
            <mxPoint x="29.99910891089104" y="40" as="sourcePoint" />
            <Array as="points">
              <mxPoint x="48" y="90" />
            </Array>
          </mxGeometry>
        </mxCell>
        <mxCell id="b5rQXbUvAPs85DydFoUU-28" style="edgeStyle=orthogonalEdgeStyle;rounded=0;jumpStyle=line;orthogonalLoop=1;jettySize=auto;html=1;startArrow=none;startFill=0;entryX=0;entryY=0.5;entryDx=0;entryDy=0;exitX=0.25;exitY=1;exitDx=0;exitDy=0;" edge="1" parent="b5rQXbUvAPs85DydFoUU-22" source="b5rQXbUvAPs85DydFoUU-24" target="b5rQXbUvAPs85DydFoUU-25">
          <mxGeometry relative="1" as="geometry">
            <mxPoint x="70.0062376237625" y="111" as="targetPoint" />
            <mxPoint x="39.99910891089104" y="50" as="sourcePoint" />
            <Array as="points">
              <mxPoint x="48" y="150" />
            </Array>
          </mxGeometry>
        </mxCell>
        <mxCell id="b5rQXbUvAPs85DydFoUU-29" value="Modifier statut payé" style="rounded=0;whiteSpace=wrap;html=1;arcSize=40;fontColor=#000000;fillColor=#ffffc0;strokeColor=#ff0000;shadow=0;glass=0;labelBackgroundColor=none;labelBorderColor=none;sketch=0;pointerEvents=1;fontFamily=Verdana;fontSize=11;" vertex="1" parent="b5rQXbUvAPs85DydFoUU-22">
          <mxGeometry x="73.17623762376253" y="190" width="190.0990099009901" height="40" as="geometry" />
        </mxCell>
        <mxCell id="BoLUXWgDhI3DAeN6LhnW-14" value="Gestionnaire Contrat" style="swimlane;startSize=38;horizontal=0;labelBackgroundColor=none;labelBorderColor=none;fontFamily=Verdana;fontSize=11;spacingLeft=36;align=left;fillColor=#f5f5f5;gradientColor=#b3b3b3;strokeColor=#666666;" parent="BoLUXWgDhI3DAeN6LhnW-1" vertex="1">
          <mxGeometry y="1160" width="1680" height="370" as="geometry">
            <mxRectangle y="120" width="1680" height="20" as="alternateBounds" />
          </mxGeometry>
        </mxCell>
        <mxCell id="2tWmwAdW8aNyq1ykrB5q-35" value="" style="swimlane;childLayout=stackLayout;resizeParent=1;resizeParentMax=0;startSize=0;rounded=0;shadow=0;glass=0;labelBackgroundColor=none;labelBorderColor=none;sketch=0;pointerEvents=1;fontFamily=Verdana;collapsible=0;fontSize=11;strokeColor=none;" parent="BoLUXWgDhI3DAeN6LhnW-14" vertex="1">
          <mxGeometry x="70" y="20" width="1272.48" height="330" as="geometry" />
        </mxCell>
        <mxCell id="2tWmwAdW8aNyq1ykrB5q-36" value="" style="swimlane;startSize=20;rounded=0;shadow=0;glass=0;labelBackgroundColor=none;labelBorderColor=none;sketch=0;pointerEvents=1;fontFamily=Verdana;strokeColor=none;fillColor=none;fontSize=11;perimeterSpacing=1;" parent="2tWmwAdW8aNyq1ykrB5q-35" vertex="1">
          <mxGeometry width="318.12" height="330" as="geometry">
            <mxRectangle width="30" height="360" as="alternateBounds" />
          </mxGeometry>
        </mxCell>
        <mxCell id="2tWmwAdW8aNyq1ykrB5q-37" value="" style="group" parent="2tWmwAdW8aNyq1ykrB5q-36" vertex="1" connectable="0">
          <mxGeometry x="26.706930693069296" y="30" width="250.10524752475249" height="258" as="geometry" />
        </mxCell>
        <mxCell id="2tWmwAdW8aNyq1ykrB5q-38" value="Gérer Contrat" style="rounded=1;whiteSpace=wrap;html=1;arcSize=40;fontColor=#000000;fillColor=#ffffc0;strokeColor=#ff0000;shadow=0;glass=0;labelBackgroundColor=none;labelBorderColor=none;sketch=0;pointerEvents=1;fontFamily=Verdana;fontSize=11;" parent="2tWmwAdW8aNyq1ykrB5q-37" vertex="1">
          <mxGeometry width="190.0990099009901" height="40" as="geometry" />
        </mxCell>
        <mxCell id="2tWmwAdW8aNyq1ykrB5q-39" value="Modifier" style="rounded=0;whiteSpace=wrap;html=1;arcSize=40;fontColor=#000000;fillColor=#ffffc0;strokeColor=#ff0000;shadow=0;glass=0;labelBackgroundColor=none;labelBorderColor=none;sketch=0;pointerEvents=1;fontFamily=Verdana;fontSize=11;" parent="2tWmwAdW8aNyq1ykrB5q-37" vertex="1">
          <mxGeometry x="49.410000000000025" y="130" width="190.0990099009901" height="40" as="geometry" />
        </mxCell>
        <mxCell id="2tWmwAdW8aNyq1ykrB5q-40" value="Désactiver" style="rounded=0;whiteSpace=wrap;html=1;arcSize=40;fontColor=#000000;fillColor=#ffffc0;strokeColor=#ff0000;shadow=0;glass=0;labelBackgroundColor=none;labelBorderColor=none;sketch=0;pointerEvents=1;fontFamily=Verdana;fontSize=11;" parent="2tWmwAdW8aNyq1ykrB5q-37" vertex="1">
          <mxGeometry x="49.41376237623763" y="190" width="190.0990099009901" height="40" as="geometry" />
        </mxCell>
        <mxCell id="2tWmwAdW8aNyq1ykrB5q-41" value="Créer" style="rounded=0;whiteSpace=wrap;html=1;arcSize=40;fontColor=#000000;fillColor=#ffffc0;strokeColor=#ff0000;shadow=0;glass=0;labelBackgroundColor=none;labelBorderColor=none;sketch=0;pointerEvents=1;fontFamily=Verdana;fontSize=11;" parent="2tWmwAdW8aNyq1ykrB5q-37" vertex="1">
          <mxGeometry x="49.4162376237624" y="70" width="190.0990099009901" height="40" as="geometry" />
        </mxCell>
        <mxCell id="2tWmwAdW8aNyq1ykrB5q-42" style="edgeStyle=orthogonalEdgeStyle;rounded=0;jumpStyle=line;orthogonalLoop=1;jettySize=auto;html=1;startArrow=none;startFill=0;entryX=0;entryY=0.5;entryDx=0;entryDy=0;" parent="2tWmwAdW8aNyq1ykrB5q-37" target="2tWmwAdW8aNyq1ykrB5q-41" edge="1">
          <mxGeometry relative="1" as="geometry">
            <mxPoint x="29.99910891089104" y="110" as="targetPoint" />
            <mxPoint x="29.99910891089104" y="40" as="sourcePoint" />
            <Array as="points">
              <mxPoint x="30" y="40" />
              <mxPoint x="30" y="100" />
            </Array>
          </mxGeometry>
        </mxCell>
        <mxCell id="2tWmwAdW8aNyq1ykrB5q-43" style="edgeStyle=orthogonalEdgeStyle;rounded=0;jumpStyle=line;orthogonalLoop=1;jettySize=auto;html=1;startArrow=none;startFill=0;entryX=0;entryY=0.5;entryDx=0;entryDy=0;exitX=0.153;exitY=1.008;exitDx=0;exitDy=0;exitPerimeter=0;" parent="2tWmwAdW8aNyq1ykrB5q-37" source="2tWmwAdW8aNyq1ykrB5q-38" target="2tWmwAdW8aNyq1ykrB5q-39" edge="1">
          <mxGeometry relative="1" as="geometry">
            <mxPoint x="70.0062376237625" y="111" as="targetPoint" />
            <mxPoint x="39.99910891089104" y="50" as="sourcePoint" />
            <Array as="points">
              <mxPoint x="30" y="150" />
            </Array>
          </mxGeometry>
        </mxCell>
        <mxCell id="2tWmwAdW8aNyq1ykrB5q-44" style="edgeStyle=orthogonalEdgeStyle;rounded=0;jumpStyle=line;orthogonalLoop=1;jettySize=auto;html=1;startArrow=none;startFill=0;entryX=0;entryY=0.5;entryDx=0;entryDy=0;exitX=0.153;exitY=1.008;exitDx=0;exitDy=0;exitPerimeter=0;" parent="2tWmwAdW8aNyq1ykrB5q-37" target="2tWmwAdW8aNyq1ykrB5q-40" edge="1">
          <mxGeometry relative="1" as="geometry">
            <mxPoint x="60.01000000000005" y="187.85000000000002" as="targetPoint" />
            <mxPoint x="29.095148514851473" y="58.17000000000007" as="sourcePoint" />
            <Array as="points">
              <mxPoint x="30" y="210" />
            </Array>
          </mxGeometry>
        </mxCell>
        <mxCell id="2tWmwAdW8aNyq1ykrB5q-45" value="Lire" style="rounded=0;whiteSpace=wrap;html=1;arcSize=40;fontColor=#000000;fillColor=#ffffc0;strokeColor=#ff0000;shadow=0;glass=0;labelBackgroundColor=none;labelBorderColor=none;sketch=0;pointerEvents=1;fontFamily=Verdana;fontSize=11;" parent="2tWmwAdW8aNyq1ykrB5q-36" vertex="1">
          <mxGeometry x="76.12069306930698" y="280" width="190.0990099009901" height="40" as="geometry" />
        </mxCell>
        <mxCell id="2tWmwAdW8aNyq1ykrB5q-46" value="" style="edgeStyle=orthogonalEdgeStyle;rounded=0;orthogonalLoop=1;jettySize=auto;html=1;exitX=0.155;exitY=1;exitDx=0;exitDy=0;exitPerimeter=0;entryX=0;entryY=0.5;entryDx=0;entryDy=0;" parent="2tWmwAdW8aNyq1ykrB5q-36" source="2tWmwAdW8aNyq1ykrB5q-38" target="2tWmwAdW8aNyq1ykrB5q-45" edge="1">
          <mxGeometry relative="1" as="geometry">
            <mxPoint x="67.99722772277232" y="310" as="targetPoint" />
            <Array as="points">
              <mxPoint x="56" y="300" />
            </Array>
          </mxGeometry>
        </mxCell>
        <mxCell id="2tWmwAdW8aNyq1ykrB5q-47" value="" style="swimlane;startSize=20;rounded=0;shadow=0;glass=0;labelBackgroundColor=none;labelBorderColor=none;sketch=0;pointerEvents=1;fontFamily=Verdana;strokeColor=none;fillColor=none;fontSize=11;" parent="2tWmwAdW8aNyq1ykrB5q-35" vertex="1">
          <mxGeometry x="318.12" width="318.12" height="330" as="geometry">
            <mxRectangle x="731.8811881188119" y="32" width="30" height="298" as="alternateBounds" />
          </mxGeometry>
        </mxCell>
        <mxCell id="2tWmwAdW8aNyq1ykrB5q-48" value="" style="group" parent="2tWmwAdW8aNyq1ykrB5q-47" vertex="1" connectable="0">
          <mxGeometry x="26.706930693069296" y="30" width="250.10524752475249" height="258" as="geometry" />
        </mxCell>
        <mxCell id="2tWmwAdW8aNyq1ykrB5q-49" value="Assigner Client" style="rounded=1;whiteSpace=wrap;html=1;arcSize=40;fontColor=#000000;fillColor=#ffffc0;strokeColor=#ff0000;shadow=0;glass=0;labelBackgroundColor=none;labelBorderColor=none;sketch=0;pointerEvents=1;fontFamily=Verdana;fontSize=11;" parent="2tWmwAdW8aNyq1ykrB5q-48" vertex="1">
          <mxGeometry width="190.0990099009901" height="40" as="geometry" />
        </mxCell>
        <mxCell id="2tWmwAdW8aNyq1ykrB5q-50" value="Invalider" style="rounded=0;whiteSpace=wrap;html=1;arcSize=40;fontColor=#000000;fillColor=#ffffc0;strokeColor=#ff0000;shadow=0;glass=0;labelBackgroundColor=none;labelBorderColor=none;sketch=0;pointerEvents=1;fontFamily=Verdana;fontSize=11;" parent="2tWmwAdW8aNyq1ykrB5q-48" vertex="1">
          <mxGeometry x="49.410000000000025" y="130" width="190.0990099009901" height="40" as="geometry" />
        </mxCell>
        <mxCell id="2tWmwAdW8aNyq1ykrB5q-51" value="Créer" style="rounded=0;whiteSpace=wrap;html=1;arcSize=40;fontColor=#000000;fillColor=#ffffc0;strokeColor=#ff0000;shadow=0;glass=0;labelBackgroundColor=none;labelBorderColor=none;sketch=0;pointerEvents=1;fontFamily=Verdana;fontSize=11;" parent="2tWmwAdW8aNyq1ykrB5q-48" vertex="1">
          <mxGeometry x="49.4162376237624" y="70" width="190.0990099009901" height="40" as="geometry" />
        </mxCell>
        <mxCell id="2tWmwAdW8aNyq1ykrB5q-52" style="edgeStyle=orthogonalEdgeStyle;rounded=0;jumpStyle=line;orthogonalLoop=1;jettySize=auto;html=1;startArrow=none;startFill=0;entryX=0;entryY=0.5;entryDx=0;entryDy=0;" parent="2tWmwAdW8aNyq1ykrB5q-48" target="2tWmwAdW8aNyq1ykrB5q-51" edge="1">
          <mxGeometry relative="1" as="geometry">
            <mxPoint x="29.99910891089104" y="110" as="targetPoint" />
            <mxPoint x="29.99910891089104" y="40" as="sourcePoint" />
            <Array as="points">
              <mxPoint x="30" y="40" />
              <mxPoint x="30" y="100" />
            </Array>
          </mxGeometry>
        </mxCell>
        <mxCell id="2tWmwAdW8aNyq1ykrB5q-53" style="edgeStyle=orthogonalEdgeStyle;rounded=0;jumpStyle=line;orthogonalLoop=1;jettySize=auto;html=1;startArrow=none;startFill=0;entryX=0;entryY=0.5;entryDx=0;entryDy=0;exitX=0.153;exitY=1.008;exitDx=0;exitDy=0;exitPerimeter=0;" parent="2tWmwAdW8aNyq1ykrB5q-48" source="2tWmwAdW8aNyq1ykrB5q-49" target="2tWmwAdW8aNyq1ykrB5q-50" edge="1">
          <mxGeometry relative="1" as="geometry">
            <mxPoint x="70.0062376237625" y="111" as="targetPoint" />
            <mxPoint x="39.99910891089104" y="50" as="sourcePoint" />
            <Array as="points">
              <mxPoint x="30" y="150" />
            </Array>
          </mxGeometry>
        </mxCell>
        <mxCell id="2tWmwAdW8aNyq1ykrB5q-54" value="" style="swimlane;startSize=20;rounded=0;shadow=0;glass=0;labelBackgroundColor=none;labelBorderColor=none;sketch=0;pointerEvents=1;fontFamily=Verdana;strokeColor=none;fillColor=none;fontSize=11;" parent="2tWmwAdW8aNyq1ykrB5q-35" vertex="1">
          <mxGeometry x="636.24" width="318.12" height="330" as="geometry">
            <mxRectangle x="731.8811881188119" y="32" width="30" height="298" as="alternateBounds" />
          </mxGeometry>
        </mxCell>
        <mxCell id="2tWmwAdW8aNyq1ykrB5q-55" value="" style="group" parent="2tWmwAdW8aNyq1ykrB5q-54" vertex="1" connectable="0">
          <mxGeometry x="26.706930693069296" y="30" width="250.10524752475249" height="258" as="geometry" />
        </mxCell>
        <mxCell id="2tWmwAdW8aNyq1ykrB5q-56" value="Assigner Services" style="rounded=1;whiteSpace=wrap;html=1;arcSize=40;fontColor=#000000;fillColor=#ffffc0;strokeColor=#ff0000;shadow=0;glass=0;labelBackgroundColor=none;labelBorderColor=none;sketch=0;pointerEvents=1;fontFamily=Verdana;fontSize=11;" parent="2tWmwAdW8aNyq1ykrB5q-55" vertex="1">
          <mxGeometry width="190.0990099009901" height="40" as="geometry" />
        </mxCell>
        <mxCell id="2tWmwAdW8aNyq1ykrB5q-57" value="Envoyer" style="rounded=0;whiteSpace=wrap;html=1;arcSize=40;fontColor=#000000;fillColor=#ffffc0;strokeColor=#ff0000;shadow=0;glass=0;labelBackgroundColor=none;labelBorderColor=none;sketch=0;pointerEvents=1;fontFamily=Verdana;fontSize=11;" parent="2tWmwAdW8aNyq1ykrB5q-55" vertex="1">
          <mxGeometry x="49.4162376237624" y="70" width="190.0990099009901" height="40" as="geometry" />
        </mxCell>
        <mxCell id="2tWmwAdW8aNyq1ykrB5q-58" style="edgeStyle=orthogonalEdgeStyle;rounded=0;jumpStyle=line;orthogonalLoop=1;jettySize=auto;html=1;startArrow=none;startFill=0;entryX=0;entryY=0.5;entryDx=0;entryDy=0;" parent="2tWmwAdW8aNyq1ykrB5q-55" target="2tWmwAdW8aNyq1ykrB5q-57" edge="1">
          <mxGeometry relative="1" as="geometry">
            <mxPoint x="29.99910891089104" y="110" as="targetPoint" />
            <mxPoint x="29.99910891089104" y="40" as="sourcePoint" />
            <Array as="points">
              <mxPoint x="30" y="40" />
              <mxPoint x="30" y="100" />
            </Array>
          </mxGeometry>
        </mxCell>
        <mxCell id="2tWmwAdW8aNyq1ykrB5q-59" value="" style="swimlane;startSize=20;rounded=0;shadow=0;glass=0;labelBackgroundColor=none;labelBorderColor=none;sketch=0;pointerEvents=1;fontFamily=Verdana;strokeColor=none;fillColor=none;fontSize=11;" parent="2tWmwAdW8aNyq1ykrB5q-35" vertex="1">
          <mxGeometry x="954.36" width="318.12" height="330" as="geometry">
            <mxRectangle x="731.8811881188119" y="32" width="30" height="298" as="alternateBounds" />
          </mxGeometry>
        </mxCell>
        <mxCell id="2tWmwAdW8aNyq1ykrB5q-60" value="" style="group" parent="2tWmwAdW8aNyq1ykrB5q-59" vertex="1" connectable="0">
          <mxGeometry x="26.706930693069296" y="30" width="250.10524752475249" height="258" as="geometry" />
        </mxCell>
        <mxCell id="2tWmwAdW8aNyq1ykrB5q-61" value="Assigner Consultants" style="rounded=1;whiteSpace=wrap;html=1;arcSize=40;fontColor=#000000;fillColor=#ffffc0;strokeColor=#ff0000;shadow=0;glass=0;labelBackgroundColor=none;labelBorderColor=none;sketch=0;pointerEvents=1;fontFamily=Verdana;fontSize=11;" parent="2tWmwAdW8aNyq1ykrB5q-60" vertex="1">
          <mxGeometry width="190.0990099009901" height="40" as="geometry" />
        </mxCell>
        <mxCell id="2tWmwAdW8aNyq1ykrB5q-62" value="Modifier statut facture" style="rounded=0;whiteSpace=wrap;html=1;arcSize=40;fontColor=#000000;fillColor=#ffffc0;strokeColor=#ff0000;shadow=0;glass=0;labelBackgroundColor=none;labelBorderColor=none;sketch=0;pointerEvents=1;fontFamily=Verdana;fontSize=11;" parent="2tWmwAdW8aNyq1ykrB5q-60" vertex="1">
          <mxGeometry x="49.4162376237624" y="70" width="190.0990099009901" height="40" as="geometry" />
        </mxCell>
        <mxCell id="2tWmwAdW8aNyq1ykrB5q-63" style="edgeStyle=orthogonalEdgeStyle;rounded=0;jumpStyle=line;orthogonalLoop=1;jettySize=auto;html=1;startArrow=none;startFill=0;entryX=0;entryY=0.5;entryDx=0;entryDy=0;" parent="2tWmwAdW8aNyq1ykrB5q-60" target="2tWmwAdW8aNyq1ykrB5q-62" edge="1">
          <mxGeometry relative="1" as="geometry">
            <mxPoint x="29.99910891089104" y="110" as="targetPoint" />
            <mxPoint x="29.99910891089104" y="40" as="sourcePoint" />
            <Array as="points">
              <mxPoint x="30" y="40" />
              <mxPoint x="30" y="100" />
            </Array>
          </mxGeometry>
        </mxCell>
        <mxCell id="2tWmwAdW8aNyq1ykrB5q-67" value="&amp;lt;&amp;lt;extend&amp;gt;&amp;gt;" style="html=1;verticalAlign=bottom;labelBackgroundColor=none;endArrow=open;endFill=0;dashed=1;rounded=0;exitX=1;exitY=0.5;exitDx=0;exitDy=0;" parent="2tWmwAdW8aNyq1ykrB5q-35" source="2tWmwAdW8aNyq1ykrB5q-38" target="2tWmwAdW8aNyq1ykrB5q-49" edge="1">
          <mxGeometry width="160" relative="1" as="geometry">
            <mxPoint x="548" y="90" as="sourcePoint" />
            <mxPoint x="708" y="90" as="targetPoint" />
          </mxGeometry>
        </mxCell>
        <mxCell id="2tWmwAdW8aNyq1ykrB5q-69" value="&amp;lt;&amp;lt;extend&amp;gt;&amp;gt;" style="html=1;verticalAlign=bottom;labelBackgroundColor=none;endArrow=open;endFill=0;dashed=1;rounded=0;exitX=1;exitY=0.5;exitDx=0;exitDy=0;" parent="2tWmwAdW8aNyq1ykrB5q-35" source="2tWmwAdW8aNyq1ykrB5q-49" target="2tWmwAdW8aNyq1ykrB5q-56" edge="1">
          <mxGeometry width="160" relative="1" as="geometry">
            <mxPoint x="548" y="90" as="sourcePoint" />
            <mxPoint x="708" y="90" as="targetPoint" />
          </mxGeometry>
        </mxCell>
        <mxCell id="2tWmwAdW8aNyq1ykrB5q-68" value="&amp;lt;&amp;lt;extend&amp;gt;&amp;gt;" style="html=1;verticalAlign=bottom;labelBackgroundColor=none;endArrow=open;endFill=0;dashed=1;rounded=0;entryX=0;entryY=0.5;entryDx=0;entryDy=0;" parent="2tWmwAdW8aNyq1ykrB5q-35" source="2tWmwAdW8aNyq1ykrB5q-56" target="2tWmwAdW8aNyq1ykrB5q-61" edge="1">
          <mxGeometry width="160" relative="1" as="geometry">
            <mxPoint x="548" y="90" as="sourcePoint" />
            <mxPoint x="708" y="90" as="targetPoint" />
          </mxGeometry>
        </mxCell>
        <mxCell id="fXtmHPNjsM4QWphinFe5-12" value="Gestionnaire Planification" style="swimlane;startSize=38;horizontal=0;labelBackgroundColor=none;labelBorderColor=none;fontFamily=Verdana;fontSize=11;spacingLeft=36;align=left;fillColor=#f5f5f5;gradientColor=#b3b3b3;strokeColor=#666666;" parent="BoLUXWgDhI3DAeN6LhnW-1" vertex="1">
          <mxGeometry y="1530" width="1680" height="360" as="geometry">
            <mxRectangle y="140" width="1680" height="20" as="alternateBounds" />
          </mxGeometry>
        </mxCell>
        <mxCell id="2tWmwAdW8aNyq1ykrB5q-70" value="" style="swimlane;childLayout=stackLayout;resizeParent=1;resizeParentMax=0;startSize=0;rounded=0;shadow=0;glass=0;labelBackgroundColor=none;labelBorderColor=none;sketch=0;pointerEvents=1;fontFamily=Verdana;collapsible=0;fontSize=11;strokeColor=none;" parent="fXtmHPNjsM4QWphinFe5-12" vertex="1">
          <mxGeometry x="60" y="20" width="1272.48" height="330" as="geometry" />
        </mxCell>
        <mxCell id="2tWmwAdW8aNyq1ykrB5q-71" value="" style="swimlane;startSize=20;rounded=0;shadow=0;glass=0;labelBackgroundColor=none;labelBorderColor=none;sketch=0;pointerEvents=1;fontFamily=Verdana;strokeColor=none;fillColor=none;fontSize=11;perimeterSpacing=1;" parent="2tWmwAdW8aNyq1ykrB5q-70" vertex="1">
          <mxGeometry width="318.12" height="330" as="geometry">
            <mxRectangle width="30" height="360" as="alternateBounds" />
          </mxGeometry>
        </mxCell>
        <mxCell id="2tWmwAdW8aNyq1ykrB5q-72" value="" style="group" parent="2tWmwAdW8aNyq1ykrB5q-71" vertex="1" connectable="0">
          <mxGeometry x="26.706930693069296" y="30" width="250.10524752475249" height="258" as="geometry" />
        </mxCell>
        <mxCell id="2tWmwAdW8aNyq1ykrB5q-73" value="Gérer Absence" style="rounded=1;whiteSpace=wrap;html=1;arcSize=40;fontColor=#000000;fillColor=#ffffc0;strokeColor=#ff0000;shadow=0;glass=0;labelBackgroundColor=none;labelBorderColor=none;sketch=0;pointerEvents=1;fontFamily=Verdana;fontSize=11;" parent="2tWmwAdW8aNyq1ykrB5q-72" vertex="1">
          <mxGeometry width="190.0990099009901" height="40" as="geometry" />
        </mxCell>
        <mxCell id="2tWmwAdW8aNyq1ykrB5q-74" value="Modifier" style="rounded=0;whiteSpace=wrap;html=1;arcSize=40;fontColor=#000000;fillColor=#ffffc0;strokeColor=#ff0000;shadow=0;glass=0;labelBackgroundColor=none;labelBorderColor=none;sketch=0;pointerEvents=1;fontFamily=Verdana;fontSize=11;" parent="2tWmwAdW8aNyq1ykrB5q-72" vertex="1">
          <mxGeometry x="49.410000000000025" y="130" width="190.0990099009901" height="40" as="geometry" />
        </mxCell>
        <mxCell id="2tWmwAdW8aNyq1ykrB5q-75" value="Désactiver" style="rounded=0;whiteSpace=wrap;html=1;arcSize=40;fontColor=#000000;fillColor=#ffffc0;strokeColor=#ff0000;shadow=0;glass=0;labelBackgroundColor=none;labelBorderColor=none;sketch=0;pointerEvents=1;fontFamily=Verdana;fontSize=11;" parent="2tWmwAdW8aNyq1ykrB5q-72" vertex="1">
          <mxGeometry x="49.41376237623763" y="190" width="190.0990099009901" height="40" as="geometry" />
        </mxCell>
        <mxCell id="2tWmwAdW8aNyq1ykrB5q-76" value="Créer" style="rounded=0;whiteSpace=wrap;html=1;arcSize=40;fontColor=#000000;fillColor=#ffffc0;strokeColor=#ff0000;shadow=0;glass=0;labelBackgroundColor=none;labelBorderColor=none;sketch=0;pointerEvents=1;fontFamily=Verdana;fontSize=11;" parent="2tWmwAdW8aNyq1ykrB5q-72" vertex="1">
          <mxGeometry x="49.4162376237624" y="70" width="190.0990099009901" height="40" as="geometry" />
        </mxCell>
        <mxCell id="2tWmwAdW8aNyq1ykrB5q-77" style="edgeStyle=orthogonalEdgeStyle;rounded=0;jumpStyle=line;orthogonalLoop=1;jettySize=auto;html=1;startArrow=none;startFill=0;entryX=0;entryY=0.5;entryDx=0;entryDy=0;" parent="2tWmwAdW8aNyq1ykrB5q-72" target="2tWmwAdW8aNyq1ykrB5q-76" edge="1">
          <mxGeometry relative="1" as="geometry">
            <mxPoint x="29.99910891089104" y="110" as="targetPoint" />
            <mxPoint x="29.99910891089104" y="40" as="sourcePoint" />
            <Array as="points">
              <mxPoint x="30" y="40" />
              <mxPoint x="30" y="100" />
            </Array>
          </mxGeometry>
        </mxCell>
        <mxCell id="2tWmwAdW8aNyq1ykrB5q-78" style="edgeStyle=orthogonalEdgeStyle;rounded=0;jumpStyle=line;orthogonalLoop=1;jettySize=auto;html=1;startArrow=none;startFill=0;entryX=0;entryY=0.5;entryDx=0;entryDy=0;exitX=0.153;exitY=1.008;exitDx=0;exitDy=0;exitPerimeter=0;" parent="2tWmwAdW8aNyq1ykrB5q-72" source="2tWmwAdW8aNyq1ykrB5q-73" target="2tWmwAdW8aNyq1ykrB5q-74" edge="1">
          <mxGeometry relative="1" as="geometry">
            <mxPoint x="70.0062376237625" y="111" as="targetPoint" />
            <mxPoint x="39.99910891089104" y="50" as="sourcePoint" />
            <Array as="points">
              <mxPoint x="30" y="150" />
            </Array>
          </mxGeometry>
        </mxCell>
        <mxCell id="2tWmwAdW8aNyq1ykrB5q-79" style="edgeStyle=orthogonalEdgeStyle;rounded=0;jumpStyle=line;orthogonalLoop=1;jettySize=auto;html=1;startArrow=none;startFill=0;entryX=0;entryY=0.5;entryDx=0;entryDy=0;exitX=0.153;exitY=1.008;exitDx=0;exitDy=0;exitPerimeter=0;" parent="2tWmwAdW8aNyq1ykrB5q-72" target="2tWmwAdW8aNyq1ykrB5q-75" edge="1">
          <mxGeometry relative="1" as="geometry">
            <mxPoint x="60.01000000000005" y="187.85000000000002" as="targetPoint" />
            <mxPoint x="29.095148514851473" y="58.17000000000007" as="sourcePoint" />
            <Array as="points">
              <mxPoint x="30" y="210" />
            </Array>
          </mxGeometry>
        </mxCell>
        <mxCell id="2tWmwAdW8aNyq1ykrB5q-80" value="Lire" style="rounded=0;whiteSpace=wrap;html=1;arcSize=40;fontColor=#000000;fillColor=#ffffc0;strokeColor=#ff0000;shadow=0;glass=0;labelBackgroundColor=none;labelBorderColor=none;sketch=0;pointerEvents=1;fontFamily=Verdana;fontSize=11;" parent="2tWmwAdW8aNyq1ykrB5q-71" vertex="1">
          <mxGeometry x="76.12069306930698" y="280" width="190.0990099009901" height="40" as="geometry" />
        </mxCell>
        <mxCell id="2tWmwAdW8aNyq1ykrB5q-81" value="" style="edgeStyle=orthogonalEdgeStyle;rounded=0;orthogonalLoop=1;jettySize=auto;html=1;exitX=0.155;exitY=1;exitDx=0;exitDy=0;exitPerimeter=0;entryX=0;entryY=0.5;entryDx=0;entryDy=0;" parent="2tWmwAdW8aNyq1ykrB5q-71" source="2tWmwAdW8aNyq1ykrB5q-73" target="2tWmwAdW8aNyq1ykrB5q-80" edge="1">
          <mxGeometry relative="1" as="geometry">
            <mxPoint x="67.99722772277232" y="310" as="targetPoint" />
            <Array as="points">
              <mxPoint x="56" y="300" />
            </Array>
          </mxGeometry>
        </mxCell>
        <mxCell id="2tWmwAdW8aNyq1ykrB5q-82" value="" style="swimlane;startSize=20;rounded=0;shadow=0;glass=0;labelBackgroundColor=none;labelBorderColor=none;sketch=0;pointerEvents=1;fontFamily=Verdana;strokeColor=none;fillColor=none;fontSize=11;" parent="2tWmwAdW8aNyq1ykrB5q-70" vertex="1">
          <mxGeometry x="318.12" width="318.12" height="330" as="geometry">
            <mxRectangle x="731.8811881188119" y="32" width="30" height="298" as="alternateBounds" />
          </mxGeometry>
        </mxCell>
        <mxCell id="2tWmwAdW8aNyq1ykrB5q-83" value="" style="group" parent="2tWmwAdW8aNyq1ykrB5q-82" vertex="1" connectable="0">
          <mxGeometry x="26.706930693069296" y="30" width="250.10524752475249" height="258" as="geometry" />
        </mxCell>
        <mxCell id="2tWmwAdW8aNyq1ykrB5q-84" value="Gérer évenements (agenda)" style="rounded=1;whiteSpace=wrap;html=1;arcSize=40;fontColor=#000000;fillColor=#ffffc0;strokeColor=#ff0000;shadow=0;glass=0;labelBackgroundColor=none;labelBorderColor=none;sketch=0;pointerEvents=1;fontFamily=Verdana;fontSize=11;" parent="2tWmwAdW8aNyq1ykrB5q-83" vertex="1">
          <mxGeometry width="190.0990099009901" height="40" as="geometry" />
        </mxCell>
        <mxCell id="2tWmwAdW8aNyq1ykrB5q-85" value="Invalider" style="rounded=0;whiteSpace=wrap;html=1;arcSize=40;fontColor=#000000;fillColor=#ffffc0;strokeColor=#ff0000;shadow=0;glass=0;labelBackgroundColor=none;labelBorderColor=none;sketch=0;pointerEvents=1;fontFamily=Verdana;fontSize=11;" parent="2tWmwAdW8aNyq1ykrB5q-83" vertex="1">
          <mxGeometry x="49.410000000000025" y="130" width="190.0990099009901" height="40" as="geometry" />
        </mxCell>
        <mxCell id="2tWmwAdW8aNyq1ykrB5q-86" value="Créer" style="rounded=0;whiteSpace=wrap;html=1;arcSize=40;fontColor=#000000;fillColor=#ffffc0;strokeColor=#ff0000;shadow=0;glass=0;labelBackgroundColor=none;labelBorderColor=none;sketch=0;pointerEvents=1;fontFamily=Verdana;fontSize=11;" parent="2tWmwAdW8aNyq1ykrB5q-83" vertex="1">
          <mxGeometry x="49.4162376237624" y="70" width="190.0990099009901" height="40" as="geometry" />
        </mxCell>
        <mxCell id="2tWmwAdW8aNyq1ykrB5q-87" style="edgeStyle=orthogonalEdgeStyle;rounded=0;jumpStyle=line;orthogonalLoop=1;jettySize=auto;html=1;startArrow=none;startFill=0;entryX=0;entryY=0.5;entryDx=0;entryDy=0;" parent="2tWmwAdW8aNyq1ykrB5q-83" target="2tWmwAdW8aNyq1ykrB5q-86" edge="1">
          <mxGeometry relative="1" as="geometry">
            <mxPoint x="29.99910891089104" y="110" as="targetPoint" />
            <mxPoint x="29.99910891089104" y="40" as="sourcePoint" />
            <Array as="points">
              <mxPoint x="30" y="40" />
              <mxPoint x="30" y="100" />
            </Array>
          </mxGeometry>
        </mxCell>
        <mxCell id="2tWmwAdW8aNyq1ykrB5q-88" style="edgeStyle=orthogonalEdgeStyle;rounded=0;jumpStyle=line;orthogonalLoop=1;jettySize=auto;html=1;startArrow=none;startFill=0;entryX=0;entryY=0.5;entryDx=0;entryDy=0;exitX=0.153;exitY=1.008;exitDx=0;exitDy=0;exitPerimeter=0;" parent="2tWmwAdW8aNyq1ykrB5q-83" source="2tWmwAdW8aNyq1ykrB5q-84" target="2tWmwAdW8aNyq1ykrB5q-85" edge="1">
          <mxGeometry relative="1" as="geometry">
            <mxPoint x="70.0062376237625" y="111" as="targetPoint" />
            <mxPoint x="39.99910891089104" y="50" as="sourcePoint" />
            <Array as="points">
              <mxPoint x="30" y="150" />
            </Array>
          </mxGeometry>
        </mxCell>
        <mxCell id="2tWmwAdW8aNyq1ykrB5q-89" value="" style="swimlane;startSize=20;rounded=0;shadow=0;glass=0;labelBackgroundColor=none;labelBorderColor=none;sketch=0;pointerEvents=1;fontFamily=Verdana;strokeColor=none;fillColor=none;fontSize=11;" parent="2tWmwAdW8aNyq1ykrB5q-70" vertex="1">
          <mxGeometry x="636.24" width="318.12" height="330" as="geometry">
            <mxRectangle x="731.8811881188119" y="32" width="30" height="298" as="alternateBounds" />
          </mxGeometry>
        </mxCell>
        <mxCell id="2tWmwAdW8aNyq1ykrB5q-90" value="" style="group" parent="2tWmwAdW8aNyq1ykrB5q-89" vertex="1" connectable="0">
          <mxGeometry x="26.706930693069296" y="30" width="250.10524752475249" height="258" as="geometry" />
        </mxCell>
        <mxCell id="2tWmwAdW8aNyq1ykrB5q-91" value="Gérer ressources" style="rounded=1;whiteSpace=wrap;html=1;arcSize=40;fontColor=#000000;fillColor=#ffffc0;strokeColor=#ff0000;shadow=0;glass=0;labelBackgroundColor=none;labelBorderColor=none;sketch=0;pointerEvents=1;fontFamily=Verdana;fontSize=11;" parent="2tWmwAdW8aNyq1ykrB5q-90" vertex="1">
          <mxGeometry width="190.0990099009901" height="40" as="geometry" />
        </mxCell>
        <mxCell id="2tWmwAdW8aNyq1ykrB5q-92" value="Envoyer" style="rounded=0;whiteSpace=wrap;html=1;arcSize=40;fontColor=#000000;fillColor=#ffffc0;strokeColor=#ff0000;shadow=0;glass=0;labelBackgroundColor=none;labelBorderColor=none;sketch=0;pointerEvents=1;fontFamily=Verdana;fontSize=11;" parent="2tWmwAdW8aNyq1ykrB5q-90" vertex="1">
          <mxGeometry x="49.4162376237624" y="70" width="190.0990099009901" height="40" as="geometry" />
        </mxCell>
        <mxCell id="2tWmwAdW8aNyq1ykrB5q-93" style="edgeStyle=orthogonalEdgeStyle;rounded=0;jumpStyle=line;orthogonalLoop=1;jettySize=auto;html=1;startArrow=none;startFill=0;entryX=0;entryY=0.5;entryDx=0;entryDy=0;" parent="2tWmwAdW8aNyq1ykrB5q-90" target="2tWmwAdW8aNyq1ykrB5q-92" edge="1">
          <mxGeometry relative="1" as="geometry">
            <mxPoint x="29.99910891089104" y="110" as="targetPoint" />
            <mxPoint x="29.99910891089104" y="40" as="sourcePoint" />
            <Array as="points">
              <mxPoint x="30" y="40" />
              <mxPoint x="30" y="100" />
            </Array>
          </mxGeometry>
        </mxCell>
        <mxCell id="2tWmwAdW8aNyq1ykrB5q-94" value="" style="swimlane;startSize=20;rounded=0;shadow=0;glass=0;labelBackgroundColor=none;labelBorderColor=none;sketch=0;pointerEvents=1;fontFamily=Verdana;strokeColor=none;fillColor=none;fontSize=11;" parent="2tWmwAdW8aNyq1ykrB5q-70" vertex="1">
          <mxGeometry x="954.36" width="318.12" height="330" as="geometry">
            <mxRectangle x="731.8811881188119" y="32" width="30" height="298" as="alternateBounds" />
          </mxGeometry>
        </mxCell>
        <mxCell id="2tWmwAdW8aNyq1ykrB5q-95" value="" style="group" parent="2tWmwAdW8aNyq1ykrB5q-94" vertex="1" connectable="0">
          <mxGeometry x="26.706930693069296" y="30" width="250.10524752475249" height="258" as="geometry" />
        </mxCell>
        <mxCell id="2tWmwAdW8aNyq1ykrB5q-96" value="Gérer tâches" style="rounded=1;whiteSpace=wrap;html=1;arcSize=40;fontColor=#000000;fillColor=#ffffc0;strokeColor=#ff0000;shadow=0;glass=0;labelBackgroundColor=none;labelBorderColor=none;sketch=0;pointerEvents=1;fontFamily=Verdana;fontSize=11;" parent="2tWmwAdW8aNyq1ykrB5q-95" vertex="1">
          <mxGeometry width="190.0990099009901" height="40" as="geometry" />
        </mxCell>
        <mxCell id="2tWmwAdW8aNyq1ykrB5q-97" value="Modifier statut facture" style="rounded=0;whiteSpace=wrap;html=1;arcSize=40;fontColor=#000000;fillColor=#ffffc0;strokeColor=#ff0000;shadow=0;glass=0;labelBackgroundColor=none;labelBorderColor=none;sketch=0;pointerEvents=1;fontFamily=Verdana;fontSize=11;" parent="2tWmwAdW8aNyq1ykrB5q-95" vertex="1">
          <mxGeometry x="49.4162376237624" y="70" width="190.0990099009901" height="40" as="geometry" />
        </mxCell>
        <mxCell id="2tWmwAdW8aNyq1ykrB5q-98" style="edgeStyle=orthogonalEdgeStyle;rounded=0;jumpStyle=line;orthogonalLoop=1;jettySize=auto;html=1;startArrow=none;startFill=0;entryX=0;entryY=0.5;entryDx=0;entryDy=0;" parent="2tWmwAdW8aNyq1ykrB5q-95" target="2tWmwAdW8aNyq1ykrB5q-97" edge="1">
          <mxGeometry relative="1" as="geometry">
            <mxPoint x="29.99910891089104" y="110" as="targetPoint" />
            <mxPoint x="29.99910891089104" y="40" as="sourcePoint" />
            <Array as="points">
              <mxPoint x="30" y="40" />
              <mxPoint x="30" y="100" />
            </Array>
          </mxGeometry>
        </mxCell>
        <mxCell id="2tWmwAdW8aNyq1ykrB5q-99" value="&amp;lt;&amp;lt;extend&amp;gt;&amp;gt;" style="html=1;verticalAlign=bottom;labelBackgroundColor=none;endArrow=open;endFill=0;dashed=1;rounded=0;exitX=1;exitY=0.5;exitDx=0;exitDy=0;" parent="2tWmwAdW8aNyq1ykrB5q-70" source="2tWmwAdW8aNyq1ykrB5q-73" target="2tWmwAdW8aNyq1ykrB5q-84" edge="1">
          <mxGeometry width="160" relative="1" as="geometry">
            <mxPoint x="548" y="90" as="sourcePoint" />
            <mxPoint x="708" y="90" as="targetPoint" />
          </mxGeometry>
        </mxCell>
        <mxCell id="2tWmwAdW8aNyq1ykrB5q-100" value="&amp;lt;&amp;lt;extend&amp;gt;&amp;gt;" style="html=1;verticalAlign=bottom;labelBackgroundColor=none;endArrow=open;endFill=0;dashed=1;rounded=0;exitX=1;exitY=0.5;exitDx=0;exitDy=0;" parent="2tWmwAdW8aNyq1ykrB5q-70" source="2tWmwAdW8aNyq1ykrB5q-84" target="2tWmwAdW8aNyq1ykrB5q-91" edge="1">
          <mxGeometry width="160" relative="1" as="geometry">
            <mxPoint x="548" y="90" as="sourcePoint" />
            <mxPoint x="708" y="90" as="targetPoint" />
          </mxGeometry>
        </mxCell>
        <mxCell id="2tWmwAdW8aNyq1ykrB5q-101" value="&amp;lt;&amp;lt;extend&amp;gt;&amp;gt;" style="html=1;verticalAlign=bottom;labelBackgroundColor=none;endArrow=open;endFill=0;dashed=1;rounded=0;entryX=0;entryY=0.5;entryDx=0;entryDy=0;" parent="2tWmwAdW8aNyq1ykrB5q-70" source="2tWmwAdW8aNyq1ykrB5q-91" target="2tWmwAdW8aNyq1ykrB5q-96" edge="1">
          <mxGeometry width="160" relative="1" as="geometry">
            <mxPoint x="548" y="90" as="sourcePoint" />
            <mxPoint x="708" y="90" as="targetPoint" />
          </mxGeometry>
        </mxCell>
        <mxCell id="2tWmwAdW8aNyq1ykrB5q-2" value="Roles participants externe" style="swimlane;startSize=60;horizontal=0;labelBackgroundColor=none;labelBorderColor=none;fontFamily=Verdana;fontSize=11;spacingLeft=36;align=left;fillColor=#d5e8d4;gradientColor=#97d077;strokeColor=#82b366;gradientDirection=south;collapsible=0;swimlaneFillColor=none;swimlaneLine=1;" parent="BoLUXWgDhI3DAeN6LhnW-1" vertex="1" collapsed="1">
          <mxGeometry y="1890" width="1680" height="60" as="geometry">
            <mxRectangle y="1970" width="1680" height="300" as="alternateBounds" />
          </mxGeometry>
        </mxCell>
        <mxCell id="b5rQXbUvAPs85DydFoUU-56" value="Consultant" style="swimlane;startSize=38;horizontal=0;labelBackgroundColor=none;labelBorderColor=none;fontFamily=Verdana;fontSize=11;spacingLeft=36;align=left;fillColor=#d5e8d4;gradientColor=#97d077;strokeColor=#82b366;gradientDirection=south;" vertex="1" parent="BoLUXWgDhI3DAeN6LhnW-1">
          <mxGeometry y="1950" width="1680" height="300" as="geometry">
            <mxRectangle y="1970" width="1680" height="20" as="alternateBounds" />
          </mxGeometry>
        </mxCell>
      </root>
    </mxGraphModel>
  </diagram>
  <diagram name="Copy of Compagnie" id="7ztR6pGg5xj3cJn3mz38">
    <mxGraphModel dx="1422" dy="762" grid="1" gridSize="10" guides="1" tooltips="1" connect="1" arrows="1" fold="1" page="1" pageScale="1" pageWidth="1100" pageHeight="850" background="none" math="0" shadow="0">
      <root>
        <mxCell id="m9F7LNHCweS9nrzHR5Uu-0" />
        <mxCell id="m9F7LNHCweS9nrzHR5Uu-1" parent="m9F7LNHCweS9nrzHR5Uu-0" />
        <mxCell id="m9F7LNHCweS9nrzHR5Uu-2" value="" style="group;fontFamily=Verdana;fontSize=14;strokeColor=none;resizeHeight=1;noLabel=0;autosize=0;" vertex="1" connectable="0" parent="m9F7LNHCweS9nrzHR5Uu-1">
          <mxGeometry x="42" y="40" width="1720" height="2270" as="geometry" />
        </mxCell>
        <mxCell id="m9F7LNHCweS9nrzHR5Uu-3" value="" style="group;fontFamily=Verdana;fontSize=11;spacingLeft=36;align=left;" vertex="1" connectable="0" parent="m9F7LNHCweS9nrzHR5Uu-2">
          <mxGeometry width="1720" height="2270" as="geometry" />
        </mxCell>
        <mxCell id="m9F7LNHCweS9nrzHR5Uu-4" value="" style="swimlane;childLayout=stackLayout;resizeParent=1;resizeParentMax=0;horizontal=1;startSize=0;horizontalStack=0;labelBackgroundColor=none;labelBorderColor=none;fontFamily=Verdana;fontSize=13;spacingLeft=36;align=left;whiteSpace=wrap;swimlaneHead=1;collapsible=0;" vertex="1" parent="m9F7LNHCweS9nrzHR5Uu-3">
          <mxGeometry width="1680" height="1090" as="geometry">
            <mxRectangle width="110" height="20" as="alternateBounds" />
          </mxGeometry>
        </mxCell>
        <mxCell id="m9F7LNHCweS9nrzHR5Uu-32" value="DBA" style="swimlane;startSize=38;horizontal=0;labelBackgroundColor=none;labelBorderColor=none;fontFamily=Verdana;fontSize=11;spacingLeft=36;align=left;fillColor=#dae8fc;gradientColor=#7ea6e0;strokeColor=#6c8ebf;collapsible=1;" vertex="1" parent="m9F7LNHCweS9nrzHR5Uu-4">
          <mxGeometry width="1680" height="350" as="geometry">
            <mxRectangle y="80" width="1680" height="20" as="alternateBounds" />
          </mxGeometry>
        </mxCell>
        <mxCell id="m9F7LNHCweS9nrzHR5Uu-33" value="" style="swimlane;childLayout=stackLayout;resizeParent=1;resizeParentMax=0;startSize=0;rounded=0;shadow=0;glass=0;labelBackgroundColor=none;labelBorderColor=none;sketch=0;pointerEvents=1;fontFamily=Verdana;collapsible=0;fontSize=11;strokeColor=none;" vertex="1" parent="m9F7LNHCweS9nrzHR5Uu-32">
          <mxGeometry x="60" y="10" width="1272.48" height="330" as="geometry" />
        </mxCell>
        <mxCell id="m9F7LNHCweS9nrzHR5Uu-34" value="" style="swimlane;startSize=20;rounded=0;shadow=0;glass=0;labelBackgroundColor=none;labelBorderColor=none;sketch=0;pointerEvents=1;fontFamily=Verdana;strokeColor=none;fillColor=none;fontSize=11;perimeterSpacing=1;" vertex="1" parent="m9F7LNHCweS9nrzHR5Uu-33">
          <mxGeometry width="318.12" height="330" as="geometry">
            <mxRectangle width="30" height="360" as="alternateBounds" />
          </mxGeometry>
        </mxCell>
        <mxCell id="m9F7LNHCweS9nrzHR5Uu-35" value="" style="group" vertex="1" connectable="0" parent="m9F7LNHCweS9nrzHR5Uu-34">
          <mxGeometry x="26.706930693069296" y="30" width="250.10524752475249" height="258" as="geometry" />
        </mxCell>
        <mxCell id="m9F7LNHCweS9nrzHR5Uu-36" value="Gérer Clients" style="rounded=1;whiteSpace=wrap;html=1;arcSize=40;fontColor=#000000;fillColor=#ffffc0;strokeColor=#ff0000;shadow=0;glass=0;labelBackgroundColor=none;labelBorderColor=none;sketch=0;pointerEvents=1;fontFamily=Verdana;fontSize=11;" vertex="1" parent="m9F7LNHCweS9nrzHR5Uu-35">
          <mxGeometry width="190.0990099009901" height="40" as="geometry" />
        </mxCell>
        <mxCell id="m9F7LNHCweS9nrzHR5Uu-37" value="Modifier" style="rounded=0;whiteSpace=wrap;html=1;arcSize=40;fontColor=#000000;fillColor=#ffffc0;strokeColor=#ff0000;shadow=0;glass=0;labelBackgroundColor=none;labelBorderColor=none;sketch=0;pointerEvents=1;fontFamily=Verdana;fontSize=11;" vertex="1" parent="m9F7LNHCweS9nrzHR5Uu-35">
          <mxGeometry x="49.410000000000025" y="130" width="190.0990099009901" height="40" as="geometry" />
        </mxCell>
        <mxCell id="m9F7LNHCweS9nrzHR5Uu-38" value="Désactiver" style="rounded=0;whiteSpace=wrap;html=1;arcSize=40;fontColor=#000000;fillColor=#ffffc0;strokeColor=#ff0000;shadow=0;glass=0;labelBackgroundColor=none;labelBorderColor=none;sketch=0;pointerEvents=1;fontFamily=Verdana;fontSize=11;" vertex="1" parent="m9F7LNHCweS9nrzHR5Uu-35">
          <mxGeometry x="49.41376237623763" y="190" width="190.0990099009901" height="40" as="geometry" />
        </mxCell>
        <mxCell id="m9F7LNHCweS9nrzHR5Uu-39" value="Créer" style="rounded=0;whiteSpace=wrap;html=1;arcSize=40;fontColor=#000000;fillColor=#ffffc0;strokeColor=#ff0000;shadow=0;glass=0;labelBackgroundColor=none;labelBorderColor=none;sketch=0;pointerEvents=1;fontFamily=Verdana;fontSize=11;" vertex="1" parent="m9F7LNHCweS9nrzHR5Uu-35">
          <mxGeometry x="49.4162376237624" y="70" width="190.0990099009901" height="40" as="geometry" />
        </mxCell>
        <mxCell id="m9F7LNHCweS9nrzHR5Uu-40" style="edgeStyle=orthogonalEdgeStyle;rounded=0;jumpStyle=line;orthogonalLoop=1;jettySize=auto;html=1;startArrow=none;startFill=0;entryX=0;entryY=0.5;entryDx=0;entryDy=0;" edge="1" parent="m9F7LNHCweS9nrzHR5Uu-35" target="m9F7LNHCweS9nrzHR5Uu-39">
          <mxGeometry relative="1" as="geometry">
            <mxPoint x="29.99910891089104" y="110" as="targetPoint" />
            <mxPoint x="29.99910891089104" y="40" as="sourcePoint" />
            <Array as="points">
              <mxPoint x="30" y="40" />
              <mxPoint x="30" y="100" />
            </Array>
          </mxGeometry>
        </mxCell>
        <mxCell id="m9F7LNHCweS9nrzHR5Uu-41" style="edgeStyle=orthogonalEdgeStyle;rounded=0;jumpStyle=line;orthogonalLoop=1;jettySize=auto;html=1;startArrow=none;startFill=0;entryX=0;entryY=0.5;entryDx=0;entryDy=0;exitX=0.153;exitY=1.008;exitDx=0;exitDy=0;exitPerimeter=0;" edge="1" parent="m9F7LNHCweS9nrzHR5Uu-35" source="m9F7LNHCweS9nrzHR5Uu-36" target="m9F7LNHCweS9nrzHR5Uu-37">
          <mxGeometry relative="1" as="geometry">
            <mxPoint x="70.0062376237625" y="111" as="targetPoint" />
            <mxPoint x="39.99910891089104" y="50" as="sourcePoint" />
            <Array as="points">
              <mxPoint x="30" y="150" />
            </Array>
          </mxGeometry>
        </mxCell>
        <mxCell id="m9F7LNHCweS9nrzHR5Uu-42" style="edgeStyle=orthogonalEdgeStyle;rounded=0;jumpStyle=line;orthogonalLoop=1;jettySize=auto;html=1;startArrow=none;startFill=0;entryX=0;entryY=0.5;entryDx=0;entryDy=0;exitX=0.153;exitY=1.008;exitDx=0;exitDy=0;exitPerimeter=0;" edge="1" parent="m9F7LNHCweS9nrzHR5Uu-35" target="m9F7LNHCweS9nrzHR5Uu-38">
          <mxGeometry relative="1" as="geometry">
            <mxPoint x="60.01000000000005" y="187.85000000000002" as="targetPoint" />
            <mxPoint x="29.095148514851473" y="58.17000000000007" as="sourcePoint" />
            <Array as="points">
              <mxPoint x="30" y="210" />
            </Array>
          </mxGeometry>
        </mxCell>
        <mxCell id="m9F7LNHCweS9nrzHR5Uu-43" value="Lire" style="rounded=0;whiteSpace=wrap;html=1;arcSize=40;fontColor=#000000;fillColor=#ffffc0;strokeColor=#ff0000;shadow=0;glass=0;labelBackgroundColor=none;labelBorderColor=none;sketch=0;pointerEvents=1;fontFamily=Verdana;fontSize=11;" vertex="1" parent="m9F7LNHCweS9nrzHR5Uu-34">
          <mxGeometry x="76.12069306930698" y="280" width="190.0990099009901" height="40" as="geometry" />
        </mxCell>
        <mxCell id="m9F7LNHCweS9nrzHR5Uu-44" value="" style="edgeStyle=orthogonalEdgeStyle;rounded=0;orthogonalLoop=1;jettySize=auto;html=1;exitX=0.155;exitY=1;exitDx=0;exitDy=0;exitPerimeter=0;entryX=0;entryY=0.5;entryDx=0;entryDy=0;" edge="1" parent="m9F7LNHCweS9nrzHR5Uu-34" source="m9F7LNHCweS9nrzHR5Uu-36" target="m9F7LNHCweS9nrzHR5Uu-43">
          <mxGeometry relative="1" as="geometry">
            <mxPoint x="67.99722772277232" y="310" as="targetPoint" />
            <Array as="points">
              <mxPoint x="56" y="300" />
            </Array>
          </mxGeometry>
        </mxCell>
        <mxCell id="m9F7LNHCweS9nrzHR5Uu-45" value="" style="swimlane;startSize=20;rounded=0;shadow=0;glass=0;labelBackgroundColor=none;labelBorderColor=none;sketch=0;pointerEvents=1;fontFamily=Verdana;strokeColor=none;fillColor=none;fontSize=11;" vertex="1" parent="m9F7LNHCweS9nrzHR5Uu-33">
          <mxGeometry x="318.12" width="318.12" height="330" as="geometry">
            <mxRectangle x="318.12" width="30" height="330" as="alternateBounds" />
          </mxGeometry>
        </mxCell>
        <mxCell id="m9F7LNHCweS9nrzHR5Uu-46" value="" style="group" vertex="1" connectable="0" parent="m9F7LNHCweS9nrzHR5Uu-45">
          <mxGeometry x="26.706930693069296" y="30" width="250.10524752475249" height="258" as="geometry" />
        </mxCell>
        <mxCell id="m9F7LNHCweS9nrzHR5Uu-47" value="Gérer Facturation" style="rounded=1;whiteSpace=wrap;html=1;arcSize=40;fontColor=#000000;fillColor=#ffffc0;strokeColor=#ff0000;shadow=0;glass=0;labelBackgroundColor=none;labelBorderColor=none;sketch=0;pointerEvents=1;fontFamily=Verdana;fontSize=11;" vertex="1" parent="m9F7LNHCweS9nrzHR5Uu-46">
          <mxGeometry width="190.0990099009901" height="40" as="geometry" />
        </mxCell>
        <mxCell id="m9F7LNHCweS9nrzHR5Uu-48" value="Invalider" style="rounded=0;whiteSpace=wrap;html=1;arcSize=40;fontColor=#000000;fillColor=#ffffc0;strokeColor=#ff0000;shadow=0;glass=0;labelBackgroundColor=none;labelBorderColor=none;sketch=0;pointerEvents=1;fontFamily=Verdana;fontSize=11;" vertex="1" parent="m9F7LNHCweS9nrzHR5Uu-46">
          <mxGeometry x="49.410000000000025" y="130" width="190.0990099009901" height="40" as="geometry" />
        </mxCell>
        <mxCell id="m9F7LNHCweS9nrzHR5Uu-49" value="Créer" style="rounded=0;whiteSpace=wrap;html=1;arcSize=40;fontColor=#000000;fillColor=#ffffc0;strokeColor=#ff0000;shadow=0;glass=0;labelBackgroundColor=none;labelBorderColor=none;sketch=0;pointerEvents=1;fontFamily=Verdana;fontSize=11;" vertex="1" parent="m9F7LNHCweS9nrzHR5Uu-46">
          <mxGeometry x="49.4162376237624" y="70" width="190.0990099009901" height="40" as="geometry" />
        </mxCell>
        <mxCell id="m9F7LNHCweS9nrzHR5Uu-50" style="edgeStyle=orthogonalEdgeStyle;rounded=0;jumpStyle=line;orthogonalLoop=1;jettySize=auto;html=1;startArrow=none;startFill=0;entryX=0;entryY=0.5;entryDx=0;entryDy=0;" edge="1" parent="m9F7LNHCweS9nrzHR5Uu-46" target="m9F7LNHCweS9nrzHR5Uu-49">
          <mxGeometry relative="1" as="geometry">
            <mxPoint x="29.99910891089104" y="110" as="targetPoint" />
            <mxPoint x="29.99910891089104" y="40" as="sourcePoint" />
            <Array as="points">
              <mxPoint x="30" y="40" />
              <mxPoint x="30" y="100" />
            </Array>
          </mxGeometry>
        </mxCell>
        <mxCell id="m9F7LNHCweS9nrzHR5Uu-51" style="edgeStyle=orthogonalEdgeStyle;rounded=0;jumpStyle=line;orthogonalLoop=1;jettySize=auto;html=1;startArrow=none;startFill=0;entryX=0;entryY=0.5;entryDx=0;entryDy=0;exitX=0.153;exitY=1.008;exitDx=0;exitDy=0;exitPerimeter=0;" edge="1" parent="m9F7LNHCweS9nrzHR5Uu-46" source="m9F7LNHCweS9nrzHR5Uu-47" target="m9F7LNHCweS9nrzHR5Uu-48">
          <mxGeometry relative="1" as="geometry">
            <mxPoint x="70.0062376237625" y="111" as="targetPoint" />
            <mxPoint x="39.99910891089104" y="50" as="sourcePoint" />
            <Array as="points">
              <mxPoint x="30" y="150" />
            </Array>
          </mxGeometry>
        </mxCell>
        <mxCell id="m9F7LNHCweS9nrzHR5Uu-52" value="" style="swimlane;startSize=20;rounded=0;shadow=0;glass=0;labelBackgroundColor=none;labelBorderColor=none;sketch=0;pointerEvents=1;fontFamily=Verdana;strokeColor=none;fillColor=none;fontSize=11;" vertex="1" parent="m9F7LNHCweS9nrzHR5Uu-33">
          <mxGeometry x="636.24" width="318.12" height="330" as="geometry">
            <mxRectangle x="731.8811881188119" y="32" width="30" height="298" as="alternateBounds" />
          </mxGeometry>
        </mxCell>
        <mxCell id="m9F7LNHCweS9nrzHR5Uu-53" value="" style="group" vertex="1" connectable="0" parent="m9F7LNHCweS9nrzHR5Uu-52">
          <mxGeometry x="26.706930693069296" y="30" width="250.10524752475249" height="258" as="geometry" />
        </mxCell>
        <mxCell id="m9F7LNHCweS9nrzHR5Uu-54" value="Gérer Etats de comptes" style="rounded=1;whiteSpace=wrap;html=1;arcSize=40;fontColor=#000000;fillColor=#ffffc0;strokeColor=#ff0000;shadow=0;glass=0;labelBackgroundColor=none;labelBorderColor=none;sketch=0;pointerEvents=1;fontFamily=Verdana;fontSize=11;" vertex="1" parent="m9F7LNHCweS9nrzHR5Uu-53">
          <mxGeometry width="190.0990099009901" height="40" as="geometry" />
        </mxCell>
        <mxCell id="m9F7LNHCweS9nrzHR5Uu-55" value="Envoyer" style="rounded=0;whiteSpace=wrap;html=1;arcSize=40;fontColor=#000000;fillColor=#ffffc0;strokeColor=#ff0000;shadow=0;glass=0;labelBackgroundColor=none;labelBorderColor=none;sketch=0;pointerEvents=1;fontFamily=Verdana;fontSize=11;" vertex="1" parent="m9F7LNHCweS9nrzHR5Uu-53">
          <mxGeometry x="49.4162376237624" y="70" width="190.0990099009901" height="40" as="geometry" />
        </mxCell>
        <mxCell id="m9F7LNHCweS9nrzHR5Uu-56" style="edgeStyle=orthogonalEdgeStyle;rounded=0;jumpStyle=line;orthogonalLoop=1;jettySize=auto;html=1;startArrow=none;startFill=0;entryX=0;entryY=0.5;entryDx=0;entryDy=0;" edge="1" parent="m9F7LNHCweS9nrzHR5Uu-53" target="m9F7LNHCweS9nrzHR5Uu-55">
          <mxGeometry relative="1" as="geometry">
            <mxPoint x="29.99910891089104" y="110" as="targetPoint" />
            <mxPoint x="29.99910891089104" y="40" as="sourcePoint" />
            <Array as="points">
              <mxPoint x="30" y="40" />
              <mxPoint x="30" y="100" />
            </Array>
          </mxGeometry>
        </mxCell>
        <mxCell id="m9F7LNHCweS9nrzHR5Uu-57" value="" style="swimlane;startSize=20;rounded=0;shadow=0;glass=0;labelBackgroundColor=none;labelBorderColor=none;sketch=0;pointerEvents=1;fontFamily=Verdana;strokeColor=none;fillColor=none;fontSize=11;" vertex="1" parent="m9F7LNHCweS9nrzHR5Uu-33">
          <mxGeometry x="954.36" width="318.12" height="330" as="geometry">
            <mxRectangle x="731.8811881188119" y="32" width="30" height="298" as="alternateBounds" />
          </mxGeometry>
        </mxCell>
        <mxCell id="m9F7LNHCweS9nrzHR5Uu-58" value="" style="group" vertex="1" connectable="0" parent="m9F7LNHCweS9nrzHR5Uu-57">
          <mxGeometry x="26.706930693069296" y="30" width="250.10524752475249" height="258" as="geometry" />
        </mxCell>
        <mxCell id="m9F7LNHCweS9nrzHR5Uu-59" value="Gérer Encaissement" style="rounded=1;whiteSpace=wrap;html=1;arcSize=40;fontColor=#000000;fillColor=#ffffc0;strokeColor=#ff0000;shadow=0;glass=0;labelBackgroundColor=none;labelBorderColor=none;sketch=0;pointerEvents=1;fontFamily=Verdana;fontSize=11;" vertex="1" parent="m9F7LNHCweS9nrzHR5Uu-58">
          <mxGeometry width="190.0990099009901" height="40" as="geometry" />
        </mxCell>
        <mxCell id="m9F7LNHCweS9nrzHR5Uu-60" value="Modifier statut facture" style="rounded=0;whiteSpace=wrap;html=1;arcSize=40;fontColor=#000000;fillColor=#ffffc0;strokeColor=#ff0000;shadow=0;glass=0;labelBackgroundColor=none;labelBorderColor=none;sketch=0;pointerEvents=1;fontFamily=Verdana;fontSize=11;" vertex="1" parent="m9F7LNHCweS9nrzHR5Uu-58">
          <mxGeometry x="49.4162376237624" y="70" width="190.0990099009901" height="40" as="geometry" />
        </mxCell>
        <mxCell id="m9F7LNHCweS9nrzHR5Uu-61" style="edgeStyle=orthogonalEdgeStyle;rounded=0;jumpStyle=line;orthogonalLoop=1;jettySize=auto;html=1;startArrow=none;startFill=0;entryX=0;entryY=0.5;entryDx=0;entryDy=0;" edge="1" parent="m9F7LNHCweS9nrzHR5Uu-58" target="m9F7LNHCweS9nrzHR5Uu-60">
          <mxGeometry relative="1" as="geometry">
            <mxPoint x="29.99910891089104" y="110" as="targetPoint" />
            <mxPoint x="29.99910891089104" y="40" as="sourcePoint" />
            <Array as="points">
              <mxPoint x="30" y="40" />
              <mxPoint x="30" y="100" />
            </Array>
          </mxGeometry>
        </mxCell>
        <mxCell id="m9F7LNHCweS9nrzHR5Uu-62" value="Super Admin" style="swimlane;startSize=38;horizontal=0;labelBackgroundColor=none;labelBorderColor=none;fontFamily=Verdana;fontSize=11;spacingLeft=36;align=left;fillColor=#dae8fc;gradientColor=#7ea6e0;strokeColor=#6c8ebf;" vertex="1" parent="m9F7LNHCweS9nrzHR5Uu-4">
          <mxGeometry y="350" width="1680" height="370" as="geometry">
            <mxRectangle y="100" width="1680" height="20" as="alternateBounds" />
          </mxGeometry>
        </mxCell>
        <mxCell id="m9F7LNHCweS9nrzHR5Uu-63" value="" style="swimlane;childLayout=stackLayout;resizeParent=1;resizeParentMax=0;startSize=0;rounded=0;shadow=0;glass=0;labelBackgroundColor=none;labelBorderColor=none;sketch=0;pointerEvents=1;fontFamily=Verdana;collapsible=0;fontSize=11;strokeColor=none;" vertex="1" parent="m9F7LNHCweS9nrzHR5Uu-62">
          <mxGeometry x="60" y="20" width="636.24" height="330" as="geometry" />
        </mxCell>
        <mxCell id="m9F7LNHCweS9nrzHR5Uu-64" value="" style="swimlane;startSize=20;rounded=0;shadow=0;glass=0;labelBackgroundColor=none;labelBorderColor=none;sketch=0;pointerEvents=1;fontFamily=Verdana;strokeColor=none;fillColor=none;fontSize=11;perimeterSpacing=1;" vertex="1" parent="m9F7LNHCweS9nrzHR5Uu-63">
          <mxGeometry width="318.12" height="330" as="geometry">
            <mxRectangle width="30" height="360" as="alternateBounds" />
          </mxGeometry>
        </mxCell>
        <mxCell id="m9F7LNHCweS9nrzHR5Uu-65" value="" style="group" vertex="1" connectable="0" parent="m9F7LNHCweS9nrzHR5Uu-64">
          <mxGeometry x="26.706930693069296" y="30" width="250.10524752475249" height="258" as="geometry" />
        </mxCell>
        <mxCell id="m9F7LNHCweS9nrzHR5Uu-66" value="Gérer Consultant" style="rounded=1;whiteSpace=wrap;html=1;arcSize=40;fontColor=#000000;fillColor=#ffffc0;strokeColor=#ff0000;shadow=0;glass=0;labelBackgroundColor=none;labelBorderColor=none;sketch=0;pointerEvents=1;fontFamily=Verdana;fontSize=11;" vertex="1" parent="m9F7LNHCweS9nrzHR5Uu-65">
          <mxGeometry width="190.0990099009901" height="40" as="geometry" />
        </mxCell>
        <mxCell id="m9F7LNHCweS9nrzHR5Uu-67" value="Modifier" style="rounded=0;whiteSpace=wrap;html=1;arcSize=40;fontColor=#000000;fillColor=#ffffc0;strokeColor=#ff0000;shadow=0;glass=0;labelBackgroundColor=none;labelBorderColor=none;sketch=0;pointerEvents=1;fontFamily=Verdana;fontSize=11;" vertex="1" parent="m9F7LNHCweS9nrzHR5Uu-65">
          <mxGeometry x="49.410000000000025" y="130" width="190.0990099009901" height="40" as="geometry" />
        </mxCell>
        <mxCell id="m9F7LNHCweS9nrzHR5Uu-68" value="Désactiver" style="rounded=0;whiteSpace=wrap;html=1;arcSize=40;fontColor=#000000;fillColor=#ffffc0;strokeColor=#ff0000;shadow=0;glass=0;labelBackgroundColor=none;labelBorderColor=none;sketch=0;pointerEvents=1;fontFamily=Verdana;fontSize=11;" vertex="1" parent="m9F7LNHCweS9nrzHR5Uu-65">
          <mxGeometry x="49.41376237623763" y="190" width="190.0990099009901" height="40" as="geometry" />
        </mxCell>
        <mxCell id="m9F7LNHCweS9nrzHR5Uu-69" value="Créer" style="rounded=0;whiteSpace=wrap;html=1;arcSize=40;fontColor=#000000;fillColor=#ffffc0;strokeColor=#ff0000;shadow=0;glass=0;labelBackgroundColor=none;labelBorderColor=none;sketch=0;pointerEvents=1;fontFamily=Verdana;fontSize=11;" vertex="1" parent="m9F7LNHCweS9nrzHR5Uu-65">
          <mxGeometry x="49.4162376237624" y="70" width="190.0990099009901" height="40" as="geometry" />
        </mxCell>
        <mxCell id="m9F7LNHCweS9nrzHR5Uu-70" style="edgeStyle=orthogonalEdgeStyle;rounded=0;jumpStyle=line;orthogonalLoop=1;jettySize=auto;html=1;startArrow=none;startFill=0;entryX=0;entryY=0.5;entryDx=0;entryDy=0;" edge="1" parent="m9F7LNHCweS9nrzHR5Uu-65" target="m9F7LNHCweS9nrzHR5Uu-69">
          <mxGeometry relative="1" as="geometry">
            <mxPoint x="29.99910891089104" y="110" as="targetPoint" />
            <mxPoint x="29.99910891089104" y="40" as="sourcePoint" />
            <Array as="points">
              <mxPoint x="30" y="40" />
              <mxPoint x="30" y="100" />
            </Array>
          </mxGeometry>
        </mxCell>
        <mxCell id="m9F7LNHCweS9nrzHR5Uu-71" style="edgeStyle=orthogonalEdgeStyle;rounded=0;jumpStyle=line;orthogonalLoop=1;jettySize=auto;html=1;startArrow=none;startFill=0;entryX=0;entryY=0.5;entryDx=0;entryDy=0;exitX=0.153;exitY=1.008;exitDx=0;exitDy=0;exitPerimeter=0;" edge="1" parent="m9F7LNHCweS9nrzHR5Uu-65" source="m9F7LNHCweS9nrzHR5Uu-66" target="m9F7LNHCweS9nrzHR5Uu-67">
          <mxGeometry relative="1" as="geometry">
            <mxPoint x="70.0062376237625" y="111" as="targetPoint" />
            <mxPoint x="39.99910891089104" y="50" as="sourcePoint" />
            <Array as="points">
              <mxPoint x="30" y="150" />
            </Array>
          </mxGeometry>
        </mxCell>
        <mxCell id="m9F7LNHCweS9nrzHR5Uu-72" style="edgeStyle=orthogonalEdgeStyle;rounded=0;jumpStyle=line;orthogonalLoop=1;jettySize=auto;html=1;startArrow=none;startFill=0;entryX=0;entryY=0.5;entryDx=0;entryDy=0;exitX=0.153;exitY=1.008;exitDx=0;exitDy=0;exitPerimeter=0;" edge="1" parent="m9F7LNHCweS9nrzHR5Uu-65" target="m9F7LNHCweS9nrzHR5Uu-68">
          <mxGeometry relative="1" as="geometry">
            <mxPoint x="60.01000000000005" y="187.85000000000002" as="targetPoint" />
            <mxPoint x="29.095148514851473" y="58.17000000000007" as="sourcePoint" />
            <Array as="points">
              <mxPoint x="30" y="210" />
            </Array>
          </mxGeometry>
        </mxCell>
        <mxCell id="m9F7LNHCweS9nrzHR5Uu-73" value="Lire" style="rounded=0;whiteSpace=wrap;html=1;arcSize=40;fontColor=#000000;fillColor=#ffffc0;strokeColor=#ff0000;shadow=0;glass=0;labelBackgroundColor=none;labelBorderColor=none;sketch=0;pointerEvents=1;fontFamily=Verdana;fontSize=11;" vertex="1" parent="m9F7LNHCweS9nrzHR5Uu-64">
          <mxGeometry x="76.12069306930698" y="280" width="190.0990099009901" height="40" as="geometry" />
        </mxCell>
        <mxCell id="m9F7LNHCweS9nrzHR5Uu-74" value="" style="edgeStyle=orthogonalEdgeStyle;rounded=0;orthogonalLoop=1;jettySize=auto;html=1;exitX=0.155;exitY=1;exitDx=0;exitDy=0;exitPerimeter=0;entryX=0;entryY=0.5;entryDx=0;entryDy=0;" edge="1" parent="m9F7LNHCweS9nrzHR5Uu-64" source="m9F7LNHCweS9nrzHR5Uu-66" target="m9F7LNHCweS9nrzHR5Uu-73">
          <mxGeometry relative="1" as="geometry">
            <mxPoint x="67.99722772277232" y="310" as="targetPoint" />
            <Array as="points">
              <mxPoint x="56" y="300" />
            </Array>
          </mxGeometry>
        </mxCell>
        <mxCell id="m9F7LNHCweS9nrzHR5Uu-75" value="" style="swimlane;startSize=20;rounded=0;shadow=0;glass=0;labelBackgroundColor=none;labelBorderColor=none;sketch=0;pointerEvents=1;fontFamily=Verdana;strokeColor=none;fillColor=none;fontSize=11;" vertex="1" parent="m9F7LNHCweS9nrzHR5Uu-63">
          <mxGeometry x="318.12" width="318.12" height="330" as="geometry">
            <mxRectangle x="731.8811881188119" y="32" width="30" height="298" as="alternateBounds" />
          </mxGeometry>
        </mxCell>
        <mxCell id="m9F7LNHCweS9nrzHR5Uu-76" value="" style="group" vertex="1" connectable="0" parent="m9F7LNHCweS9nrzHR5Uu-75">
          <mxGeometry x="26.706930693069296" y="30" width="263.27524752475256" height="258" as="geometry" />
        </mxCell>
        <mxCell id="m9F7LNHCweS9nrzHR5Uu-77" style="edgeStyle=orthogonalEdgeStyle;rounded=0;orthogonalLoop=1;jettySize=auto;html=1;exitX=0.25;exitY=1;exitDx=0;exitDy=0;entryX=0;entryY=0.5;entryDx=0;entryDy=0;" edge="1" parent="m9F7LNHCweS9nrzHR5Uu-76" source="m9F7LNHCweS9nrzHR5Uu-78" target="m9F7LNHCweS9nrzHR5Uu-83">
          <mxGeometry relative="1" as="geometry" />
        </mxCell>
        <mxCell id="m9F7LNHCweS9nrzHR5Uu-78" value="Gérer Paiement" style="rounded=1;whiteSpace=wrap;html=1;arcSize=40;fontColor=#000000;fillColor=#ffffc0;strokeColor=#ff0000;shadow=0;glass=0;labelBackgroundColor=none;labelBorderColor=none;sketch=0;pointerEvents=1;fontFamily=Verdana;fontSize=11;" vertex="1" parent="m9F7LNHCweS9nrzHR5Uu-76">
          <mxGeometry width="190.0990099009901" height="40" as="geometry" />
        </mxCell>
        <mxCell id="m9F7LNHCweS9nrzHR5Uu-79" value="Invalider" style="rounded=0;whiteSpace=wrap;html=1;arcSize=40;fontColor=#000000;fillColor=#ffffc0;strokeColor=#ff0000;shadow=0;glass=0;labelBackgroundColor=none;labelBorderColor=none;sketch=0;pointerEvents=1;fontFamily=Verdana;fontSize=11;" vertex="1" parent="m9F7LNHCweS9nrzHR5Uu-76">
          <mxGeometry x="73.17000000000003" y="130" width="190.0990099009901" height="40" as="geometry" />
        </mxCell>
        <mxCell id="m9F7LNHCweS9nrzHR5Uu-80" value="Créer" style="rounded=0;whiteSpace=wrap;html=1;arcSize=40;fontColor=#000000;fillColor=#ffffc0;strokeColor=#ff0000;shadow=0;glass=0;labelBackgroundColor=none;labelBorderColor=none;sketch=0;pointerEvents=1;fontFamily=Verdana;fontSize=11;" vertex="1" parent="m9F7LNHCweS9nrzHR5Uu-76">
          <mxGeometry x="73.1762376237624" y="70" width="190.0990099009901" height="40" as="geometry" />
        </mxCell>
        <mxCell id="m9F7LNHCweS9nrzHR5Uu-81" style="edgeStyle=orthogonalEdgeStyle;rounded=0;jumpStyle=line;orthogonalLoop=1;jettySize=auto;html=1;startArrow=none;startFill=0;entryX=0;entryY=0.5;entryDx=0;entryDy=0;exitX=0.25;exitY=1;exitDx=0;exitDy=0;" edge="1" parent="m9F7LNHCweS9nrzHR5Uu-76" source="m9F7LNHCweS9nrzHR5Uu-78" target="m9F7LNHCweS9nrzHR5Uu-80">
          <mxGeometry relative="1" as="geometry">
            <mxPoint x="29.99910891089104" y="110" as="targetPoint" />
            <mxPoint x="29.99910891089104" y="40" as="sourcePoint" />
            <Array as="points">
              <mxPoint x="48" y="90" />
            </Array>
          </mxGeometry>
        </mxCell>
        <mxCell id="m9F7LNHCweS9nrzHR5Uu-82" style="edgeStyle=orthogonalEdgeStyle;rounded=0;jumpStyle=line;orthogonalLoop=1;jettySize=auto;html=1;startArrow=none;startFill=0;entryX=0;entryY=0.5;entryDx=0;entryDy=0;exitX=0.25;exitY=1;exitDx=0;exitDy=0;" edge="1" parent="m9F7LNHCweS9nrzHR5Uu-76" source="m9F7LNHCweS9nrzHR5Uu-78" target="m9F7LNHCweS9nrzHR5Uu-79">
          <mxGeometry relative="1" as="geometry">
            <mxPoint x="70.0062376237625" y="111" as="targetPoint" />
            <mxPoint x="39.99910891089104" y="50" as="sourcePoint" />
            <Array as="points">
              <mxPoint x="48" y="150" />
            </Array>
          </mxGeometry>
        </mxCell>
        <mxCell id="m9F7LNHCweS9nrzHR5Uu-83" value="Modifier statut payé" style="rounded=0;whiteSpace=wrap;html=1;arcSize=40;fontColor=#000000;fillColor=#ffffc0;strokeColor=#ff0000;shadow=0;glass=0;labelBackgroundColor=none;labelBorderColor=none;sketch=0;pointerEvents=1;fontFamily=Verdana;fontSize=11;" vertex="1" parent="m9F7LNHCweS9nrzHR5Uu-76">
          <mxGeometry x="73.17623762376253" y="190" width="190.0990099009901" height="40" as="geometry" />
        </mxCell>
        <mxCell id="m9F7LNHCweS9nrzHR5Uu-84" value="BI" style="swimlane;startSize=38;horizontal=0;labelBackgroundColor=none;labelBorderColor=none;fontFamily=Verdana;fontSize=11;spacingLeft=36;align=left;fillColor=#dae8fc;gradientColor=#7ea6e0;strokeColor=#6c8ebf;" vertex="1" parent="m9F7LNHCweS9nrzHR5Uu-4">
          <mxGeometry y="720" width="1680" height="370" as="geometry">
            <mxRectangle y="120" width="1680" height="20" as="alternateBounds" />
          </mxGeometry>
        </mxCell>
        <mxCell id="m9F7LNHCweS9nrzHR5Uu-85" value="" style="swimlane;childLayout=stackLayout;resizeParent=1;resizeParentMax=0;startSize=0;rounded=0;shadow=0;glass=0;labelBackgroundColor=none;labelBorderColor=none;sketch=0;pointerEvents=1;fontFamily=Verdana;collapsible=0;fontSize=11;strokeColor=none;" vertex="1" parent="m9F7LNHCweS9nrzHR5Uu-84">
          <mxGeometry x="70" y="20" width="1272.48" height="330" as="geometry" />
        </mxCell>
        <mxCell id="m9F7LNHCweS9nrzHR5Uu-86" value="" style="swimlane;startSize=20;rounded=0;shadow=0;glass=0;labelBackgroundColor=none;labelBorderColor=none;sketch=0;pointerEvents=1;fontFamily=Verdana;strokeColor=none;fillColor=none;fontSize=11;perimeterSpacing=1;" vertex="1" parent="m9F7LNHCweS9nrzHR5Uu-85">
          <mxGeometry width="318.12" height="330" as="geometry">
            <mxRectangle width="30" height="360" as="alternateBounds" />
          </mxGeometry>
        </mxCell>
        <mxCell id="m9F7LNHCweS9nrzHR5Uu-87" value="" style="group" vertex="1" connectable="0" parent="m9F7LNHCweS9nrzHR5Uu-86">
          <mxGeometry x="26.706930693069296" y="30" width="250.10524752475249" height="258" as="geometry" />
        </mxCell>
        <mxCell id="m9F7LNHCweS9nrzHR5Uu-88" value="Gérer Contrat" style="rounded=1;whiteSpace=wrap;html=1;arcSize=40;fontColor=#000000;fillColor=#ffffc0;strokeColor=#ff0000;shadow=0;glass=0;labelBackgroundColor=none;labelBorderColor=none;sketch=0;pointerEvents=1;fontFamily=Verdana;fontSize=11;" vertex="1" parent="m9F7LNHCweS9nrzHR5Uu-87">
          <mxGeometry width="190.0990099009901" height="40" as="geometry" />
        </mxCell>
        <mxCell id="m9F7LNHCweS9nrzHR5Uu-89" value="Modifier" style="rounded=0;whiteSpace=wrap;html=1;arcSize=40;fontColor=#000000;fillColor=#ffffc0;strokeColor=#ff0000;shadow=0;glass=0;labelBackgroundColor=none;labelBorderColor=none;sketch=0;pointerEvents=1;fontFamily=Verdana;fontSize=11;" vertex="1" parent="m9F7LNHCweS9nrzHR5Uu-87">
          <mxGeometry x="49.410000000000025" y="130" width="190.0990099009901" height="40" as="geometry" />
        </mxCell>
        <mxCell id="m9F7LNHCweS9nrzHR5Uu-90" value="Désactiver" style="rounded=0;whiteSpace=wrap;html=1;arcSize=40;fontColor=#000000;fillColor=#ffffc0;strokeColor=#ff0000;shadow=0;glass=0;labelBackgroundColor=none;labelBorderColor=none;sketch=0;pointerEvents=1;fontFamily=Verdana;fontSize=11;" vertex="1" parent="m9F7LNHCweS9nrzHR5Uu-87">
          <mxGeometry x="49.41376237623763" y="190" width="190.0990099009901" height="40" as="geometry" />
        </mxCell>
        <mxCell id="m9F7LNHCweS9nrzHR5Uu-91" value="Créer" style="rounded=0;whiteSpace=wrap;html=1;arcSize=40;fontColor=#000000;fillColor=#ffffc0;strokeColor=#ff0000;shadow=0;glass=0;labelBackgroundColor=none;labelBorderColor=none;sketch=0;pointerEvents=1;fontFamily=Verdana;fontSize=11;" vertex="1" parent="m9F7LNHCweS9nrzHR5Uu-87">
          <mxGeometry x="49.4162376237624" y="70" width="190.0990099009901" height="40" as="geometry" />
        </mxCell>
        <mxCell id="m9F7LNHCweS9nrzHR5Uu-92" style="edgeStyle=orthogonalEdgeStyle;rounded=0;jumpStyle=line;orthogonalLoop=1;jettySize=auto;html=1;startArrow=none;startFill=0;entryX=0;entryY=0.5;entryDx=0;entryDy=0;" edge="1" parent="m9F7LNHCweS9nrzHR5Uu-87" target="m9F7LNHCweS9nrzHR5Uu-91">
          <mxGeometry relative="1" as="geometry">
            <mxPoint x="29.99910891089104" y="110" as="targetPoint" />
            <mxPoint x="29.99910891089104" y="40" as="sourcePoint" />
            <Array as="points">
              <mxPoint x="30" y="40" />
              <mxPoint x="30" y="100" />
            </Array>
          </mxGeometry>
        </mxCell>
        <mxCell id="m9F7LNHCweS9nrzHR5Uu-93" style="edgeStyle=orthogonalEdgeStyle;rounded=0;jumpStyle=line;orthogonalLoop=1;jettySize=auto;html=1;startArrow=none;startFill=0;entryX=0;entryY=0.5;entryDx=0;entryDy=0;exitX=0.153;exitY=1.008;exitDx=0;exitDy=0;exitPerimeter=0;" edge="1" parent="m9F7LNHCweS9nrzHR5Uu-87" source="m9F7LNHCweS9nrzHR5Uu-88" target="m9F7LNHCweS9nrzHR5Uu-89">
          <mxGeometry relative="1" as="geometry">
            <mxPoint x="70.0062376237625" y="111" as="targetPoint" />
            <mxPoint x="39.99910891089104" y="50" as="sourcePoint" />
            <Array as="points">
              <mxPoint x="30" y="150" />
            </Array>
          </mxGeometry>
        </mxCell>
        <mxCell id="m9F7LNHCweS9nrzHR5Uu-94" style="edgeStyle=orthogonalEdgeStyle;rounded=0;jumpStyle=line;orthogonalLoop=1;jettySize=auto;html=1;startArrow=none;startFill=0;entryX=0;entryY=0.5;entryDx=0;entryDy=0;exitX=0.153;exitY=1.008;exitDx=0;exitDy=0;exitPerimeter=0;" edge="1" parent="m9F7LNHCweS9nrzHR5Uu-87" target="m9F7LNHCweS9nrzHR5Uu-90">
          <mxGeometry relative="1" as="geometry">
            <mxPoint x="60.01000000000005" y="187.85000000000002" as="targetPoint" />
            <mxPoint x="29.095148514851473" y="58.17000000000007" as="sourcePoint" />
            <Array as="points">
              <mxPoint x="30" y="210" />
            </Array>
          </mxGeometry>
        </mxCell>
        <mxCell id="m9F7LNHCweS9nrzHR5Uu-95" value="Lire" style="rounded=0;whiteSpace=wrap;html=1;arcSize=40;fontColor=#000000;fillColor=#ffffc0;strokeColor=#ff0000;shadow=0;glass=0;labelBackgroundColor=none;labelBorderColor=none;sketch=0;pointerEvents=1;fontFamily=Verdana;fontSize=11;" vertex="1" parent="m9F7LNHCweS9nrzHR5Uu-86">
          <mxGeometry x="76.12069306930698" y="280" width="190.0990099009901" height="40" as="geometry" />
        </mxCell>
        <mxCell id="m9F7LNHCweS9nrzHR5Uu-96" value="" style="edgeStyle=orthogonalEdgeStyle;rounded=0;orthogonalLoop=1;jettySize=auto;html=1;exitX=0.155;exitY=1;exitDx=0;exitDy=0;exitPerimeter=0;entryX=0;entryY=0.5;entryDx=0;entryDy=0;" edge="1" parent="m9F7LNHCweS9nrzHR5Uu-86" source="m9F7LNHCweS9nrzHR5Uu-88" target="m9F7LNHCweS9nrzHR5Uu-95">
          <mxGeometry relative="1" as="geometry">
            <mxPoint x="67.99722772277232" y="310" as="targetPoint" />
            <Array as="points">
              <mxPoint x="56" y="300" />
            </Array>
          </mxGeometry>
        </mxCell>
        <mxCell id="m9F7LNHCweS9nrzHR5Uu-97" value="" style="swimlane;startSize=20;rounded=0;shadow=0;glass=0;labelBackgroundColor=none;labelBorderColor=none;sketch=0;pointerEvents=1;fontFamily=Verdana;strokeColor=none;fillColor=none;fontSize=11;" vertex="1" parent="m9F7LNHCweS9nrzHR5Uu-85">
          <mxGeometry x="318.12" width="318.12" height="330" as="geometry">
            <mxRectangle x="731.8811881188119" y="32" width="30" height="298" as="alternateBounds" />
          </mxGeometry>
        </mxCell>
        <mxCell id="m9F7LNHCweS9nrzHR5Uu-98" value="" style="group" vertex="1" connectable="0" parent="m9F7LNHCweS9nrzHR5Uu-97">
          <mxGeometry x="26.706930693069296" y="30" width="250.10524752475249" height="258" as="geometry" />
        </mxCell>
        <mxCell id="m9F7LNHCweS9nrzHR5Uu-99" value="Assigner Client" style="rounded=1;whiteSpace=wrap;html=1;arcSize=40;fontColor=#000000;fillColor=#ffffc0;strokeColor=#ff0000;shadow=0;glass=0;labelBackgroundColor=none;labelBorderColor=none;sketch=0;pointerEvents=1;fontFamily=Verdana;fontSize=11;" vertex="1" parent="m9F7LNHCweS9nrzHR5Uu-98">
          <mxGeometry width="190.0990099009901" height="40" as="geometry" />
        </mxCell>
        <mxCell id="m9F7LNHCweS9nrzHR5Uu-100" value="Invalider" style="rounded=0;whiteSpace=wrap;html=1;arcSize=40;fontColor=#000000;fillColor=#ffffc0;strokeColor=#ff0000;shadow=0;glass=0;labelBackgroundColor=none;labelBorderColor=none;sketch=0;pointerEvents=1;fontFamily=Verdana;fontSize=11;" vertex="1" parent="m9F7LNHCweS9nrzHR5Uu-98">
          <mxGeometry x="49.410000000000025" y="130" width="190.0990099009901" height="40" as="geometry" />
        </mxCell>
        <mxCell id="m9F7LNHCweS9nrzHR5Uu-101" value="Créer" style="rounded=0;whiteSpace=wrap;html=1;arcSize=40;fontColor=#000000;fillColor=#ffffc0;strokeColor=#ff0000;shadow=0;glass=0;labelBackgroundColor=none;labelBorderColor=none;sketch=0;pointerEvents=1;fontFamily=Verdana;fontSize=11;" vertex="1" parent="m9F7LNHCweS9nrzHR5Uu-98">
          <mxGeometry x="49.4162376237624" y="70" width="190.0990099009901" height="40" as="geometry" />
        </mxCell>
        <mxCell id="m9F7LNHCweS9nrzHR5Uu-102" style="edgeStyle=orthogonalEdgeStyle;rounded=0;jumpStyle=line;orthogonalLoop=1;jettySize=auto;html=1;startArrow=none;startFill=0;entryX=0;entryY=0.5;entryDx=0;entryDy=0;" edge="1" parent="m9F7LNHCweS9nrzHR5Uu-98" target="m9F7LNHCweS9nrzHR5Uu-101">
          <mxGeometry relative="1" as="geometry">
            <mxPoint x="29.99910891089104" y="110" as="targetPoint" />
            <mxPoint x="29.99910891089104" y="40" as="sourcePoint" />
            <Array as="points">
              <mxPoint x="30" y="40" />
              <mxPoint x="30" y="100" />
            </Array>
          </mxGeometry>
        </mxCell>
        <mxCell id="m9F7LNHCweS9nrzHR5Uu-103" style="edgeStyle=orthogonalEdgeStyle;rounded=0;jumpStyle=line;orthogonalLoop=1;jettySize=auto;html=1;startArrow=none;startFill=0;entryX=0;entryY=0.5;entryDx=0;entryDy=0;exitX=0.153;exitY=1.008;exitDx=0;exitDy=0;exitPerimeter=0;" edge="1" parent="m9F7LNHCweS9nrzHR5Uu-98" source="m9F7LNHCweS9nrzHR5Uu-99" target="m9F7LNHCweS9nrzHR5Uu-100">
          <mxGeometry relative="1" as="geometry">
            <mxPoint x="70.0062376237625" y="111" as="targetPoint" />
            <mxPoint x="39.99910891089104" y="50" as="sourcePoint" />
            <Array as="points">
              <mxPoint x="30" y="150" />
            </Array>
          </mxGeometry>
        </mxCell>
        <mxCell id="m9F7LNHCweS9nrzHR5Uu-104" value="" style="swimlane;startSize=20;rounded=0;shadow=0;glass=0;labelBackgroundColor=none;labelBorderColor=none;sketch=0;pointerEvents=1;fontFamily=Verdana;strokeColor=none;fillColor=none;fontSize=11;" vertex="1" parent="m9F7LNHCweS9nrzHR5Uu-85">
          <mxGeometry x="636.24" width="318.12" height="330" as="geometry">
            <mxRectangle x="731.8811881188119" y="32" width="30" height="298" as="alternateBounds" />
          </mxGeometry>
        </mxCell>
        <mxCell id="m9F7LNHCweS9nrzHR5Uu-105" value="" style="group" vertex="1" connectable="0" parent="m9F7LNHCweS9nrzHR5Uu-104">
          <mxGeometry x="26.706930693069296" y="30" width="250.10524752475249" height="258" as="geometry" />
        </mxCell>
        <mxCell id="m9F7LNHCweS9nrzHR5Uu-106" value="Assigner Services" style="rounded=1;whiteSpace=wrap;html=1;arcSize=40;fontColor=#000000;fillColor=#ffffc0;strokeColor=#ff0000;shadow=0;glass=0;labelBackgroundColor=none;labelBorderColor=none;sketch=0;pointerEvents=1;fontFamily=Verdana;fontSize=11;" vertex="1" parent="m9F7LNHCweS9nrzHR5Uu-105">
          <mxGeometry width="190.0990099009901" height="40" as="geometry" />
        </mxCell>
        <mxCell id="m9F7LNHCweS9nrzHR5Uu-107" value="Envoyer" style="rounded=0;whiteSpace=wrap;html=1;arcSize=40;fontColor=#000000;fillColor=#ffffc0;strokeColor=#ff0000;shadow=0;glass=0;labelBackgroundColor=none;labelBorderColor=none;sketch=0;pointerEvents=1;fontFamily=Verdana;fontSize=11;" vertex="1" parent="m9F7LNHCweS9nrzHR5Uu-105">
          <mxGeometry x="49.4162376237624" y="70" width="190.0990099009901" height="40" as="geometry" />
        </mxCell>
        <mxCell id="m9F7LNHCweS9nrzHR5Uu-108" style="edgeStyle=orthogonalEdgeStyle;rounded=0;jumpStyle=line;orthogonalLoop=1;jettySize=auto;html=1;startArrow=none;startFill=0;entryX=0;entryY=0.5;entryDx=0;entryDy=0;" edge="1" parent="m9F7LNHCweS9nrzHR5Uu-105" target="m9F7LNHCweS9nrzHR5Uu-107">
          <mxGeometry relative="1" as="geometry">
            <mxPoint x="29.99910891089104" y="110" as="targetPoint" />
            <mxPoint x="29.99910891089104" y="40" as="sourcePoint" />
            <Array as="points">
              <mxPoint x="30" y="40" />
              <mxPoint x="30" y="100" />
            </Array>
          </mxGeometry>
        </mxCell>
        <mxCell id="m9F7LNHCweS9nrzHR5Uu-109" value="" style="swimlane;startSize=20;rounded=0;shadow=0;glass=0;labelBackgroundColor=none;labelBorderColor=none;sketch=0;pointerEvents=1;fontFamily=Verdana;strokeColor=none;fillColor=none;fontSize=11;" vertex="1" parent="m9F7LNHCweS9nrzHR5Uu-85">
          <mxGeometry x="954.36" width="318.12" height="330" as="geometry">
            <mxRectangle x="731.8811881188119" y="32" width="30" height="298" as="alternateBounds" />
          </mxGeometry>
        </mxCell>
        <mxCell id="m9F7LNHCweS9nrzHR5Uu-110" value="" style="group" vertex="1" connectable="0" parent="m9F7LNHCweS9nrzHR5Uu-109">
          <mxGeometry x="26.706930693069296" y="30" width="250.10524752475249" height="258" as="geometry" />
        </mxCell>
        <mxCell id="m9F7LNHCweS9nrzHR5Uu-111" value="Assigner Consultants" style="rounded=1;whiteSpace=wrap;html=1;arcSize=40;fontColor=#000000;fillColor=#ffffc0;strokeColor=#ff0000;shadow=0;glass=0;labelBackgroundColor=none;labelBorderColor=none;sketch=0;pointerEvents=1;fontFamily=Verdana;fontSize=11;" vertex="1" parent="m9F7LNHCweS9nrzHR5Uu-110">
          <mxGeometry width="190.0990099009901" height="40" as="geometry" />
        </mxCell>
        <mxCell id="m9F7LNHCweS9nrzHR5Uu-112" value="Modifier statut facture" style="rounded=0;whiteSpace=wrap;html=1;arcSize=40;fontColor=#000000;fillColor=#ffffc0;strokeColor=#ff0000;shadow=0;glass=0;labelBackgroundColor=none;labelBorderColor=none;sketch=0;pointerEvents=1;fontFamily=Verdana;fontSize=11;" vertex="1" parent="m9F7LNHCweS9nrzHR5Uu-110">
          <mxGeometry x="49.4162376237624" y="70" width="190.0990099009901" height="40" as="geometry" />
        </mxCell>
        <mxCell id="m9F7LNHCweS9nrzHR5Uu-113" style="edgeStyle=orthogonalEdgeStyle;rounded=0;jumpStyle=line;orthogonalLoop=1;jettySize=auto;html=1;startArrow=none;startFill=0;entryX=0;entryY=0.5;entryDx=0;entryDy=0;" edge="1" parent="m9F7LNHCweS9nrzHR5Uu-110" target="m9F7LNHCweS9nrzHR5Uu-112">
          <mxGeometry relative="1" as="geometry">
            <mxPoint x="29.99910891089104" y="110" as="targetPoint" />
            <mxPoint x="29.99910891089104" y="40" as="sourcePoint" />
            <Array as="points">
              <mxPoint x="30" y="40" />
              <mxPoint x="30" y="100" />
            </Array>
          </mxGeometry>
        </mxCell>
        <mxCell id="m9F7LNHCweS9nrzHR5Uu-114" value="&amp;lt;&amp;lt;extend&amp;gt;&amp;gt;" style="html=1;verticalAlign=bottom;labelBackgroundColor=none;endArrow=open;endFill=0;dashed=1;rounded=0;exitX=1;exitY=0.5;exitDx=0;exitDy=0;" edge="1" parent="m9F7LNHCweS9nrzHR5Uu-85" source="m9F7LNHCweS9nrzHR5Uu-88" target="m9F7LNHCweS9nrzHR5Uu-99">
          <mxGeometry width="160" relative="1" as="geometry">
            <mxPoint x="548" y="90" as="sourcePoint" />
            <mxPoint x="708" y="90" as="targetPoint" />
          </mxGeometry>
        </mxCell>
        <mxCell id="m9F7LNHCweS9nrzHR5Uu-115" value="&amp;lt;&amp;lt;extend&amp;gt;&amp;gt;" style="html=1;verticalAlign=bottom;labelBackgroundColor=none;endArrow=open;endFill=0;dashed=1;rounded=0;exitX=1;exitY=0.5;exitDx=0;exitDy=0;" edge="1" parent="m9F7LNHCweS9nrzHR5Uu-85" source="m9F7LNHCweS9nrzHR5Uu-99" target="m9F7LNHCweS9nrzHR5Uu-106">
          <mxGeometry width="160" relative="1" as="geometry">
            <mxPoint x="548" y="90" as="sourcePoint" />
            <mxPoint x="708" y="90" as="targetPoint" />
          </mxGeometry>
        </mxCell>
        <mxCell id="m9F7LNHCweS9nrzHR5Uu-116" value="&amp;lt;&amp;lt;extend&amp;gt;&amp;gt;" style="html=1;verticalAlign=bottom;labelBackgroundColor=none;endArrow=open;endFill=0;dashed=1;rounded=0;entryX=0;entryY=0.5;entryDx=0;entryDy=0;" edge="1" parent="m9F7LNHCweS9nrzHR5Uu-85" source="m9F7LNHCweS9nrzHR5Uu-106" target="m9F7LNHCweS9nrzHR5Uu-111">
          <mxGeometry width="160" relative="1" as="geometry">
            <mxPoint x="548" y="90" as="sourcePoint" />
            <mxPoint x="708" y="90" as="targetPoint" />
          </mxGeometry>
        </mxCell>
      </root>
    </mxGraphModel>
  </diagram>
</mxfile>
